<svg enable-background="new 0 0 605.3 169.9" version="1.1" viewBox="0 0 605.3 169.9" xml:space="preserve" xmlns="http://www.w3.org/2000/svg">
	<path d="m231.9 36c-12.4-12.7-27.5-20.7-44.8-23.9s-36.1-4.6-56.5-4.6l-97 0.5-0.7 3.4c2.4 0 5.1 0.2 8 0.2s6.3 0.2 10 0.7 6.3 1.5 8 3.4 2.4 5.1 1.9 9.5l-1.3 9.8-21.2 100.9-2.7 9.7c-1.5 4.6-3.4 7.8-5.8 9.5s-5.4 2.9-9.3 3.2c-3.9 0.2-7.3 0.7-10.2 0.7-2.9 0.2-5.6 0.2-7.8 0.2l-0.7 3.4h109.6c20.2 0 38-1.2 53.8-3.9s31.4-9.3 47.3-19.7c15.8-10.5 26.1-27 30.7-49.2 4.8-23.1 1.2-41.1-11.3-53.8zm-59.2 55.1c-2.7 13.2-7.8 26.1-14.9 38.7s-13.4 20.2-18.8 23.1-11 4.6-16.6 5.4-11.7 1-18.3 1h-7.1l31.2-147.4h3.2c3.7 0 8 0.2 13.2 0.5 5.1 0.2 8.8 0.7 11 1.7 10.7 3.7 17.3 12.9 19.7 27.3 2.1 14.6 1.3 31.2-2.6 49.7zm264.1 14.8 4.4 0.7c-6.1 17.1-16.8 31.2-32.6 42.4-15.6 11.2-36.8 16.8-63.1 16.8-30 0-52.9-7.6-68.7-22.7-16.1-15.1-21.7-34.3-16.8-57.5 4.9-23.6 18.5-42.9 40.7-57.7s48.2-22.2 78.2-22.2c12.9 0 23.6 1.7 32.2 5.4l24.8 12.7c5.1 0 9-1.5 11.4-4.4s4.4-7.1 6.3-12.4h5.1l-14.1 67h-4.4c-3.9-17.3-7.1-29-8.8-35.1-1.9-6.1-6.1-11.9-12.4-17.8-6.3-5.6-15.1-8.5-26.8-8.5-15.1 0-27.8 7.1-38 21s-17.3 30.2-21.2 48.7c-4.1 20-3.4 37.3 2.2 52.1 5.6 14.6 17.1 21.9 34.1 21.9 15.8 0 29.5-4.6 40.9-14.1 11.5-9 20.3-21.2 26.6-36.3zm91.8-87.2-8.5 60.9h3.2c10 0 17.5-2.9 22.9-9 5.4-5.8 9.5-14.6 12.2-26.3h4.4l-11 78.2h-4.4c0.2-8.5-0.7-15.6-2.9-21s-5.1-9-8.8-11c-3.7-1.9-9.3-2.9-16.8-2.9l-5.8 42.1c-1.2 8.3-1.5 13.2-1 15.1 0.5 1.7 1.7 3.4 3.4 4.6 1.9 1.2 5.1 1.7 9.5 1.7h9.5c14.6 0 27-3.2 36.8-9.7s17.5-16.3 23.1-29.5h4.4l-13.6 47.5h-136.2l0.5-4.1h5.1c4.6 0 8.3-0.7 11.4-2.4 2.2-1 3.9-2.7 5.4-5.4 1.2-1.7 2.2-6.3 3.2-13.9l13.6-98.4c1-6.8 1.2-11 1.2-12.4-0.5-2.7-1.5-4.6-3.4-5.8-2.7-1.9-6.6-3.2-11.7-3.2h-5.1l0.5-4.1h132l-6.1 44.6h-4.4c-0.7-10.7-2.9-18.5-6.3-23.4-3.4-4.6-8.8-8-15.8-10.5-4.1-1.2-12.2-1.9-24.1-1.9h-16.3v0.2z"/>
</svg>