<svg enable-background="new 0 0 1242 71" version="1.1" viewBox="0 0 1242 71" xml:space="preserve" xmlns="http://www.w3.org/2000/svg">
	<path d="m95.7 16c-5.1-5.2-11.3-8.5-18.4-9.8s-14.8-1.9-23.2-1.9l-39.8 0.2-0.3 1.4c1 0 2.1 0.1 3.3 0.1s2.6 0.1 4.1 0.3 2.6 0.6 3.3 1.4 1 2.1 0.8 3.9l-0.6 4-8.7 41.4-1.1 4c-0.6 1.9-1.4 3.2-2.4 3.9s-2.2 1.2-3.8 1.3-3 0.3-4.2 0.3c-1.2 0.1-2.3 0.1-3.2 0.1l-0.3 1.4h45c8.3 0 15.6-0.5 22.1-1.6s12.9-3.8 19.4-8.1 10.7-11.1 12.6-20.2c2-9.5 0.5-16.9-4.6-22.1zm-24.3 22.6c-1.1 5.4-3.2 10.7-6.1 15.9s-5.5 8.3-7.7 9.5-4.5 1.9-6.8 2.2-4.8 0.4-7.5 0.4h-1.6-1.4l12.8-60.5h1.3c1.5 0 3.3 0.1 5.4 0.2s3.6 0.3 4.5 0.7c4.4 1.5 7.1 5.3 8.1 11.2 0.9 6 0.6 12.8-1 20.4zm123.6 19.1c-1 2-2.4 2.9-4.3 2.9-1.4 0-2.4-0.5-3-1.6s-1.1-2.9-1.5-5.5c-0.5-2.6-1.2-5-2.4-7.2-1.1-2.2-2.6-3.8-4.4-5-1.8-1.1-3.8-2-6.1-2.5-2.3-0.6-5.3-1.2-8.7-1.8l0.1-0.6c6 0 10.4-0.4 13.3-1.2s5.4-2 7.6-3.4c2.2-1.5 3.9-3.2 5.2-5.2s2.2-4.1 2.6-6.1c0.6-2.7 0.3-5.1-0.8-7.2s-2.8-3.8-5.1-5.2-5.5-2.3-9.5-2.8-9.4-0.7-16-0.7l-47.8 0.1-0.3 1.4c1 0.1 2 0.1 3.2 0.1 1.1 0 2.5 0.1 4 0.3s2.6 0.6 3.3 1.4 1 2.1 0.8 3.9l-0.6 4-8.6 41.3-1.1 4c-0.6 1.9-1.4 3.2-2.4 3.9s-2.2 1.2-3.6 1.3c-1.5 0.1-3 0.3-4.6 0.5h-3.3l-0.3 1.4h51.3l0.3-1.4-5.4-0.3c-2.2-0.2-3.6-0.8-4.4-1.6s-1-2.2-0.9-4l0.6-4 4.3-20.5c1.5 0 3 0 4.5 0.1s2.8 0.4 4 0.9c1.2 0.6 1.8 2.5 1.9 5.9-0.1 3-0.3 6.8-0.4 11.2s1.3 8 4.2 10.7 7.2 4.1 13 4.1c3.7 0 7.3-0.6 10.7-1.7s6.2-2.6 8.3-4.5c2.1-1.8 3.5-3.6 4.3-5.3s1.5-4 2.1-6.8h-1.7c-0.6 2.5-1.4 4.7-2.4 6.7zm-39.4-23.2c-1.3 0.2-3 0.3-5 0.3h-3.6l6.1-28.8c1.2 0.1 2.6 0.1 4.1 0.2 1.6 0.1 3.3 0.3 5.2 0.8s3.3 2.1 4.1 4.8c0.8 2.8 1 5.6 0.4 8.4-0.7 3.5-2.1 6.7-4.1 9.5-2 2.9-4.4 4.5-7.2 4.8zm114.1-30h25.5l-0.3 1.4-2.8 0.1c-2.4 0-4.5 0.4-6.3 1.1s-3.8 2.3-6.1 4.5-5.5 5.6-9.6 10.1-8.2 9-12.2 13.5l-4.6 21.8-0.6 4c-0.2 1.9 0 3.2 0.6 3.9s1.6 1.2 3.1 1.3 2.9 0.2 4.2 0.3 2.4 0.1 3.3 0.2l-0.3 1.4h-52l0.3-1.4 7.1-0.3c2.2-0.2 3.7-0.6 4.7-1.3 0.9-0.7 1.7-2 2.3-3.9l1.1-4 3.4-16.3-14.5-26.9c-1.8-3.1-3.3-5.1-4.4-6.1-1.2-1-2.9-1.6-5.1-1.8l-2.9-0.3 0.3-1.4h49.9l-0.3 1.4-5.8 0.2c-1.5 0.1-2.6 0.3-3.3 0.5s-1.1 0.8-1.3 1.7c-0.1 0.6-0.1 1.3 0 1.9 0.2 0.6 0.6 1.7 1.4 3.3s2.4 4.5 4.7 8.8 4.6 8.3 6.8 12.2c3.1-3.4 6.6-7.2 10.2-11.1 3.7-4 6.4-7.1 8.3-9.2 1.8-2.1 2.9-3.9 3.2-5.2 0.3-1.6-1-2.5-4.1-2.8l-4.2-0.2 0.3-1.4zm128.1 40.2 1.8 0.3c-2.5 7-6.9 12.8-13.4 17.4-6.4 4.6-15.1 6.9-25.9 6.9-12.3 0-21.7-3.1-28.2-9.3-6.6-6.2-8.9-14.1-6.9-23.6 2-9.7 7.6-17.6 16.7-23.7s19.8-9.1 32.1-9.1c5.3 0 9.7 0.7 13.2 2.2l10.2 5.2c2.1 0 3.7-0.6 4.7-1.8s1.8-2.9 2.6-5.1h2.1l-5.8 27.5h-1.8c-1.6-7.1-2.9-11.9-3.6-14.4-0.8-2.5-2.5-4.9-5.1-7.3-2.6-2.3-6.2-3.5-11-3.5-6.2 0-11.4 2.9-15.6 8.6s-7.1 12.4-8.7 20c-1.7 8.2-1.4 15.3 0.9 21.4 2.3 6 7 9 14 9 6.5 0 12.1-1.9 16.8-5.8 4.7-3.7 8.3-8.7 10.9-14.9zm91.9-7.7-6.5 31.2h-83.5l0.3-1.4h2.4c1 0 2.6-0.1 4.8-0.3 2.1-0.2 3.8-0.7 4.8-1.4 1.1-0.8 1.9-2 2.5-3.8l1.1-4 8.7-41.5 0.6-4c0.2-1.9 0-3.2-0.6-3.9s-1.7-1.2-3.2-1.4-2.9-0.3-4-0.3-2.2-0.1-3.1-0.1l0.3-1.4h51.7l-0.3 1.4-7.1 0.3c-2.2 0.2-3.7 0.6-4.7 1.3-0.9 0.7-1.7 2-2.3 3.9l-1.1 4-10.7 51.1 9.2-0.3c4.3 0 8.9-1.6 13.8-4.8s9.4-6.9 13.5-11.1 8-8.6 11.6-13.3h1.8zm245.5-31.1c1 0.1 2.1 0.1 3.2 0.2 1.2 0.1 2.7 0.2 4.5 0.5 1.9 0.3 3.2 0.9 3.9 1.8 0.8 1 1 2.4 0.9 4.2l-0.7 4.2-5.9 27.9h-0.4l-30-40.2h-40.7l-0.3 1.4h3.2c1.4 0 2.9 0.2 4.3 0.6 1.5 0.4 2.7 1.1 3.8 2.2 1.1 1 1.9 2.2 2.6 3.4l-0.6 4-8.3 39.8-1.1 4.2c-1.2 3.6-3.3 5.5-6.2 5.9-3 0.4-5.1 0.6-6.2 0.7-0.7 0-1.3 0.1-1.9 0.1l-3.4-0.3c-1.8-0.2-3.1-0.7-4-1.5s-1.6-2.1-2.2-3.9l-1.9-6.8-12.1-50h-11.8l-30.9 50c-0.8 1.2-1.7 2.6-2.7 4.1-1.1 1.5-2 2.8-2.9 3.9-0.8 1.1-2 2-3.3 2.8-1.4 0.7-3.3 1.2-5.7 1.4l-6.3 0.3 5.5-26.4h-1.7c-3.6 5.7-8.6 11.3-14.8 16.7-6.3 5.4-11.2 8.3-14.7 8.7-3.6 0.4-6.9 0.6-10.1 0.6-3.1 0-6.2 0.1-9.2 0.1l6.3-30.1 4.4 0.2c4.1 0.3 6.8 2 8.3 4.9s1.8 6.3 1 10.2h2l6.7-31.8h-2c-0.8 3.9-2.6 7.2-5.3 10s-6.1 4.4-10.3 4.8l-4.5 0.2 6.3-28.8h1c0.8 0 2.4 0 4.8 0.1s5.3 0.2 8.8 0.5 7.3 2.7 11.6 7.1c4.3 4.5 7.5 9.9 9.8 16.5h1.7l5.4-25.9h-82.2l-0.3 1.4c1 0.1 2.1 0.1 3.3 0.1s2.6 0.1 4.1 0.3 2.6 0.6 3.3 1.4 1 2.1 0.8 3.9l-0.6 4-8.7 41.4-1.1 4c-0.6 1.9-1.4 3.2-2.4 3.9s-2.2 1.2-3.8 1.3-3 0.3-4.2 0.3c-1.2 0.1-2.3 0.1-3.2 0.1l-0.3 1.4h114.2l0.3-1.4c-1.1-0.1-2.3-0.1-3.5-0.2s-2.4-0.2-3.7-0.4c-1.2-0.2-2.2-0.6-2.9-1.1s-0.9-1.5-0.6-2.8c0.3-1.2 1-2.9 2.1-5l5.2-9.1h20.1l1.9 9.3c0.5 2.4 0.6 4.2 0.3 5.5-0.3 1.2-0.8 2-1.7 2.4s-2.2 0.7-4 0.9-3.1 0.4-3.8 0.4h-2.3l-0.3 1.4h79.5l0.3-1.4c-0.5-0.1-1.4-0.1-2.8-0.2s-3-0.2-4.9-0.5-3.2-0.9-4-1.8-1.1-2.4-0.9-4.3l0.7-4.2 8.6-40.8h0.4l39.6 53.2h13l10.7-51 1.1-4.2c0.6-1.9 1.5-3.3 2.8-4.4s2.9-1.7 5-2c2-0.3 3.6-0.4 4.7-0.5 1.1 0.3 2.1 0.2 3.1 0.2l0.3-1.4h-30.8l-0.3 1.4zm-135.2 40.5 13.6-21.5 4.9 21.5h-18.5zm230.5-37.5-3.5 25h1.3c4.1 0 7.2-1.2 9.4-3.7 2.2-2.4 3.9-6 5-10.8h1.8l-4.5 32.1h-1.8c0.1-3.5-0.3-6.4-1.2-8.6s-2.1-3.7-3.6-4.5-3.8-1.2-6.9-1.2l-2.4 17.3c-0.5 3.4-0.6 5.4-0.4 6.2 0.2 0.7 0.7 1.4 1.4 1.9 0.8 0.5 2.1 0.7 3.9 0.7h3.9c6 0 11.1-1.3 15.1-4s7.2-6.7 9.5-12.1h1.8l-5.6 19.5h-55.9l0.2-1.7h2.1c1.9 0 3.4-0.3 4.7-1 0.9-0.4 1.6-1.1 2.2-2.2 0.5-0.7 0.9-2.6 1.3-5.7l5.6-40.4c0.4-2.8 0.5-4.5 0.5-5.1-0.2-1.1-0.6-1.9-1.4-2.4-1.1-0.8-2.7-1.3-4.8-1.3h-2.1l0.2-1.7h54.2l-2.5 18.3h-1.8c-0.3-4.4-1.2-7.6-2.6-9.6-1.4-1.9-3.6-3.3-6.5-4.3-1.7-0.5-5-0.8-9.9-0.8h-6.7zm91 7.8-14.2 14 14.4 25.1c2.4 4.2 4.1 6.7 5.3 7.6 1.1 0.9 2.5 1.4 4.2 1.6l-0.2 1.7h-31.5l0.2-1.7c2.5-0.2 4.2-0.5 5-1.1 0.8-0.5 1.3-1.2 1.4-2 0.1-0.5 0-1-0.1-1.5-0.3-0.9-1.2-2.6-2.6-5.1l-7.6-13.3-11.5 11.4c-3.4 3.5-5.2 5.8-5.4 7.1-0.1 0.9 0.1 1.7 0.8 2.4s1.7 1.3 3.2 1.6c0.6 0.2 2 0.3 4.1 0.3l-0.2 1.7h-24.9l0.2-1.7c2.9-0.4 5.2-1.1 7-2.2 2.3-1.4 5.7-4.3 10.1-8.7l14.9-14.8-13.3-22.9c-2.2-3.8-3.4-5.9-3.8-6.3-0.7-1-1.5-1.7-2.2-2.1-0.8-0.4-1.9-0.7-3.3-1l0.2-1.7h32.1l-0.3 1.9h-1.6c-1.8 0-3.2 0.3-4 0.8-0.8 0.6-1.3 1.3-1.4 2.1-0.1 0.7-0.1 1.2 0.1 1.7l2.6 4.7 6.4 11.6 7.9-7.9c4.1-4.1 6.2-6.9 6.4-8.6 0.1-0.8 0-1.6-0.4-2.3s-1-1.2-1.9-1.6-2.3-0.6-4.2-0.6l0.2-1.7h23.8l-0.1 1.8c-1.9 0-3.4 0.2-4.6 0.7-1.2 0.4-2.5 1.2-4 2.3-1 0.7-3.4 2.9-7.2 6.7zm68.6-6.7c-3.6-3.1-10-4.7-19.3-4.7h-28.2l-0.2 1.7c3 0 4.9 0.3 6 0.8 1 0.5 1.7 1.2 2 2.1s0.2 3-0.2 6.3l-5.5 39.8c-0.5 3.3-1 5.4-1.5 6.2s-1.4 1.5-2.5 2.1c-1.1 0.5-3.2 0.8-6.2 0.8l-0.2 1.7h32.7l0.2-1.7c-2.9 0-4.9-0.3-5.9-0.8s-1.7-1.2-2-2.1-0.2-2.9 0.2-6.3l2.4-17c7.3 0 12.6-0.4 15.8-1.1 4.7-1 8.6-3 11.6-5.8s4.8-6.2 5.3-10.2c0.6-4.7-0.9-8.6-4.5-11.8zm-11.4 12c-0.6 4.6-2.2 8-4.6 10.2s-5.5 3.3-9.4 3.3c-0.5 0-1.3 0-2.4-0.1l3.7-26.5h2c4.2 0 7.2 1.1 9 3.2 1.7 2 2.3 5.4 1.7 9.9zm76.3 36.4-12.7-20.8c4.1-0.9 7.3-2.3 9.8-4.2 3.9-3 6.1-6.7 6.7-11.2 0.5-3.7-0.2-7-2.1-9.7-1.9-2.8-4.6-4.6-8.1-5.7-3.5-1-9.1-1.5-17-1.5h-30.1l-0.2 1.7c3 0 4.9 0.3 6 0.8 1 0.5 1.7 1.2 2 2.1s0.2 3-0.2 6.3l-5.5 39.8c-0.5 3.3-1 5.4-1.5 6.2s-1.4 1.5-2.5 2.1c-1.1 0.5-3.2 0.8-6.2 0.8l-0.2 1.7h33.1l0.2-1.7c-3 0-4.9-0.3-6-0.8-1-0.5-1.7-1.2-2-2.1s-0.2-2.9 0.2-6.3l2.4-17.2h4.2l17 28h20.4l0.2-1.7c-1.7-0.1-3.1-0.6-4.3-1.5-0.7-0.7-1.9-2.4-3.6-5.1zm-20.6-24c-2.3 0.8-5.7 1.2-10.1 1.2h-2.7l3.7-26.9h5.1c5.1 0 8.7 1.1 10.7 3.3s2.7 5.7 2 10.4c-0.4 3.2-1.4 5.9-3 7.9-1.5 1.9-3.4 3.3-5.7 4.1zm62.1-25.5-3.5 25h1.3c4.1 0 7.2-1.2 9.4-3.7 2.2-2.4 3.9-6 5-10.8h1.8l-4.5 32.1h-1.8c0.1-3.5-0.3-6.4-1.2-8.6s-2.1-3.7-3.6-4.5-3.8-1.2-6.9-1.2l-2.4 17.3c-0.5 3.4-0.6 5.4-0.4 6.2 0.2 0.7 0.7 1.4 1.4 1.9 0.8 0.5 2.1 0.7 3.9 0.7h3.9c6 0 11.1-1.3 15.1-4s7.2-6.7 9.5-12.1h1.8l-5.6 19.5h-55.9l0.2-1.7h2.1c1.9 0 3.4-0.3 4.7-1 0.9-0.4 1.6-1.1 2.2-2.2 0.4-0.7 0.9-2.6 1.3-5.7l5.6-40.4c0.4-2.8 0.5-4.5 0.5-5.1-0.2-1.1-0.7-1.9-1.4-2.4-1.1-0.8-2.7-1.3-4.8-1.3h-2.1l0.2-1.7h54.2l-2.5 18.2h-1.8c-0.3-4.4-1.2-7.6-2.6-9.6-1.4-1.9-3.6-3.3-6.5-4.3-1.7-0.5-5-0.8-9.9-0.8h-6.7zm53.1 6.6c-0.2 1.4 0 2.6 0.5 3.6 0.7 1.4 2 2.8 3.9 4.2 1.4 1 4.6 2.8 9.6 5.3 7.1 3.5 11.7 6.9 13.9 10s3 6.7 2.4 10.8c-0.7 5.1-3.4 9.5-8.2 13.2-4.7 3.7-10.3 5.5-16.8 5.5-2 0-3.9-0.2-5.7-0.6s-3.9-1.1-6.5-2.2c-1.4-0.6-2.7-0.9-3.6-0.9-0.8 0-1.7 0.3-2.7 0.9s-1.9 1.5-2.6 2.8h-1.8l3.2-23.2h1.8c0.5 6.5 2.5 11.5 6 14.9s7.6 5.1 12.2 5.1c3.6 0 6.5-0.9 8.9-2.8 2.4-1.8 3.7-4 4.1-6.4 0.2-1.5 0-2.9-0.6-4.2-0.6-1.4-1.7-2.6-3.2-3.9-1.5-1.2-4.2-2.8-8.1-4.8-5.5-2.7-9.4-5.1-11.7-7s-4-4.1-5-6.5-1.4-5-1-7.9c0.7-4.9 3.1-9.1 7.4-12.5s9.3-5.2 15-5.2c2.1 0 4.1 0.2 6 0.7 1.4 0.4 3.2 1 5.2 2s3.4 1.5 4.3 1.5c0.8 0 1.5-0.2 2.1-0.7 0.5-0.5 1.2-1.6 1.8-3.5h1.4l-2.3 20.5h-2c-0.2-5.1-1.9-9.3-5.1-12.4s-6.9-4.7-11.1-4.7c-3.2 0-5.9 0.8-8 2.5-2.2 1.8-3.4 3.7-3.7 5.9zm82.2 23.1c2.2 3.1 3 6.7 2.4 10.8-0.7 5.1-3.4 9.5-8.2 13.2-4.7 3.7-10.3 5.5-16.8 5.5-2 0-3.9-0.2-5.7-0.6s-3.9-1.1-6.5-2.2c-1.4-0.6-2.7-0.9-3.6-0.9-0.8 0-1.7 0.3-2.7 0.9s-1.9 1.5-2.6 2.8h-1.8l3.2-23.2h1.8c0.5 6.5 2.5 11.5 6 14.9s7.6 5.1 12.2 5.1c3.6 0 6.5-0.9 8.9-2.8 2.4-1.8 3.7-4 4.1-6.4 0.2-1.5 0-2.9-0.6-4.2-0.6-1.4-1.7-2.6-3.2-3.9-1.5-1.2-4.2-2.8-8.1-4.8-5.5-2.7-9.4-5.1-11.7-7s-4-4.1-5-6.5c-1.1-2.4-1.4-5-1-7.9 0.7-4.9 3.1-9.1 7.4-12.5s9.3-5.2 15-5.2c2.1 0 4.1 0.2 6 0.7 1.4 0.4 3.2 1 5.2 2s3.4 1.5 4.3 1.5c0.8 0 1.5-0.2 2.1-0.7 0.5-0.5 1.2-1.6 1.8-3.5h1.4l-2.3 20.5h-2c-0.2-5.1-1.9-9.3-5.1-12.4s-6.9-4.7-11.1-4.7c-3.2 0-5.9 0.8-8 2.5-2.1 1.6-3.3 3.5-3.6 5.7-0.2 1.4 0 2.6 0.5 3.6 0.7 1.4 2 2.8 3.9 4.2 1.4 1 4.6 2.8 9.6 5.3 7 3.7 11.6 7.1 13.8 10.2z"/>
</svg>