<svg enable-background="new 0 0 128 127" version="1.1" viewBox="0 0 128 127" xml:space="preserve" xmlns="http://www.w3.org/2000/svg">
	<path d="m63.5 2c-34 0-61.5 27.5-61.5 61.5s27.5 61.5 61.5 61.5 61.5-27.5 61.5-61.5-27.5-61.5-61.5-61.5zm24.1 83.1h-12.3v-24.4c0-2.5-0.8-5.2-2.6-7-3.1-3.3-8.9-3.1-11.9 0.2-1.7 1.7-2.4 4.2-2.3 6.6 0 8.1-0.1 16.2 0.1 24.4-4.1 0.2-8.2 0.1-12.3 0.1-0.5-7.2-0.3-14.5-0.3-21.7-9.3-2.9-16.6-12-16.1-21.9 4 0.1 8.1 0 12.1 0.1 0.2 4 1.9 8 5.4 10.1 2.4-6 8.4-9.9 14.7-10.8 6.9-1 14.8 0 20 5.1 3.8 3.5 5.4 8.8 5.4 13.8 0.1 8.5 0.1 16.9 0.1 25.4z"/>
</svg>