<svg enable-background="new 0 0 128 127" version="1.1" viewBox="0 0 128 127" xml:space="preserve" xmlns="http://www.w3.org/2000/svg">
	<path d="m63.8 1.8c-34 0-61.5 27.5-61.5 61.5s27.5 61.5 61.5 61.5 61.5-27.5 61.5-61.5-27.5-61.5-61.5-61.5zm0.6 94.1c-18.1 0-32.7-14.6-32.7-32.7s14.6-32.7 32.7-32.7c8.8 0 16.2 3.2 21.9 8.5l-8.9 8.5c-2.4-2.3-6.7-5.1-13-5.1-11.1 0-20.2 9.2-20.2 20.6s9.1 20.6 20.2 20.6c12.9 0 17.8-9.3 18.5-14.1h-18.5v-10.9h30.8c0.3 1.7 0.5 3.3 0.5 5.4 0 18.6-12.5 31.9-31.3 31.9z"/>
</svg>