<svg enable-background="new 0 0 128 127" version="1.1" viewBox="0 0 128 127" xml:space="preserve" xmlns="http://www.w3.org/2000/svg">
  <path d="m63.5 2c-34 0-61.5 27.5-61.5 61.5s27.5 61.5 61.5 61.5 61.5-27.5 61.5-61.5-27.5-61.5-61.5-61.5zm-19.6 33.1c0.7-1.1 2-1.5 2-1.5l13.3-4.9c0.6-0.1 1.2-0.7 3.1 0.5 1.3 0.8 1.5 3.6 1.5 3.6l0.1 22.7s-0.3 2.7-2.2 3.2c-1.7 0.4-3.1-1-3.1-1l-13.7-18.8s-1.9-2.2-1-3.8zm-7 38.8c-0.5-0.9-0.4-2.9-0.4-2.9l0.9-11.4c0.1-0.7 0.8-1.6 1.5-2 1-0.6 3.1 0.3 3.1 0.3l14.2 7.2s2.2 1.1 2.1 2.8c-0.1 2.3-1.2 2.4-1.8 2.8l-16.5 3.6s-2.4 0.9-3.1-0.4zm25.7 21.7c-1 0.3-2.4 0-2.4 0l-11.2-3.5c-0.8-0.4-1.3-0.9-1.7-2-0.4-1.2 1-3 1-3l11.1-12.3s1.7-1.5 3.1-0.8c1.3 0.7 1.4 2.3 1.4 2.3l-0.3 16.6c0.1 0 0.4 2.3-1 2.7zm6.7-31.4c-0.8-1.3 0-2.7 0-2.7l9-14.2s0.9-1.8 2.4-1.7c1.4 0.1 2 1.3 2 1.3l7.6 9s0.7 1.4 0.4 2.6-2.5 2.1-2.5 2.1l-16 4.7c0.2-0.1-2.1 0.3-2.9-1.1zm21 15.9-6.8 9.7s-1.2 1-2.4 1-2.6-1.9-2.6-1.9l-8.5-14.3s-1-2.1 0.2-3.2c1-1.1 2.6-0.6 2.6-0.6l16 5.1s2.3 0.4 2.3 1.9c-0.1 1.1-0.8 2.3-0.8 2.3z"/>
</svg>