<svg version="1.1" xmlns="http://www.w3.org/2000/svg" xmlns:xlink="http://www.w3.org/1999/xlink" x="0px" y="0px"
	 viewBox="0 0 808.7 94" style="enable-background:new 0 0 808.7 94;" xml:space="preserve">
<style type="text/css">
	.st0{fill:#515151;}
	.st1{fill:#ACD676;}
	.st2{fill:url(#SVGID_1_);}
	.st3{fill:url(#SVGID_00000103943802325143802590000006339286044278278309_);}
	.st4{fill:#CE84C5;}
	.st5{fill:url(#SVGID_00000078765858993379731820000013096787576709496971_);}
	.st6{fill:url(#SVGID_00000021087707047493675250000011659352468370575263_);}
	.st7{fill:#E27664;}
	.st8{fill:url(#SVGID_00000078746158343597251360000001826387266644696754_);}
	.st9{fill:url(#SVGID_00000166661679171661187110000016052434610580204422_);}
	.st10{fill:#19D5F4;}
	.st11{fill:url(#SVGID_00000003817521453593663760000003730290819755924139_);}
	.st12{fill:url(#SVGID_00000100364153943034410380000006937176022483355051_);}
</style>
<g id="Original">
</g>
<g id="LE_Logo">
	<path class="st0" d="M557.6,22.2l-3,13.1h-2.7c-0.3-2.3-1.2-4.4-2.4-6.3c-1.3-1.9-2.7-3-4.1-3.3c-0.7-0.2-1.7-0.3-2.9-0.3
		c-1.3,0-2.3-0.1-3.2-0.1h-7.1l-4.6,20h4.9c1.8,0,3.2-0.2,4.3-0.6c1-0.4,2-1,2.9-1.7c0.7-0.6,1.5-1.5,2.4-3c0.9-1.4,1.6-2.7,1.9-3.7
		h2.7l-5,21.4H539v-1.3c0-1.1-0.1-2.2-0.3-3.3c-0.2-1.1-0.5-1.9-0.8-2.4c-0.6-0.9-1.5-1.5-2.5-1.8s-2.2-0.5-3.6-0.5h-4.9l-3.3,14.3
		c-0.2,0.7-0.3,1.5-0.5,2.4c-0.1,0.8-0.2,1.4-0.2,1.8c0,1.5,0.5,2.5,1.5,2.9s2.9,0.6,5.6,0.6c3.5,0,6-0.2,7.6-0.5
		c1.6-0.3,2.8-0.8,3.6-1.4c1.4-1.2,3.2-3.1,5.2-5.5c2-2.5,3.4-4.3,4.1-5.5h2.6l-4.7,16h-47.8l0.6-2.6c0.6,0,1.5-0.1,2.7-0.2
		c1.2-0.1,2.1-0.3,2.7-0.5c0.9-0.3,1.7-0.8,2.2-1.4c0.5-0.7,0.8-1.4,1-2.2l8.3-35.9c0.1-0.5,0.2-0.9,0.3-1.3c0-0.3,0.1-0.6,0.1-0.8
		c0-1-0.5-1.8-1.5-2.4c-1-0.6-2.7-1-5-1.4l0.6-2.6H557.6z M600.1,42.2c0,2.1-0.7,3.8-2,5c-1.3,1.2-3,1.9-4.9,1.9
		c-1.2,0-2.3-0.1-3.4-0.4c-1.1-0.3-2.1-0.6-2.9-0.9c-0.4,0.3-1,0.8-1.7,1.7c-0.7,0.9-1.6,2-2.5,3.3c0.9,3.7,1.6,6.3,2.1,7.9
		c0.5,1.6,1,3.1,1.5,4.7c0.4,1.3,1,2.3,1.8,3c0.8,0.7,2.1,1.1,3.8,1.1c0.6,0,1.4-0.1,2.4-0.4c0.9-0.2,1.7-0.5,2.3-0.7l-0.8,3.3
		c-2.4,1-4.5,1.8-6.3,2.2c-1.8,0.5-3.4,0.7-4.8,0.7c-1,0-2-0.1-3-0.3c-1-0.2-1.9-0.5-2.7-1c-0.9-0.5-1.6-1.2-2.3-2
		c-0.6-0.8-1.1-1.9-1.6-3.3c-0.3-0.9-0.6-1.9-0.8-3c-0.2-1.1-0.5-2.1-0.7-3c-0.7,1-1.2,1.8-1.5,2.3c-0.3,0.5-0.8,1.2-1.4,2.1
		c-1.9,2.9-3.6,5-5,6.2c-1.4,1.2-3.1,1.9-5,1.9c-1.5,0-2.7-0.5-3.8-1.5c-1-1-1.6-2.3-1.6-3.9c0-2.1,0.7-3.8,2-5.1
		c1.3-1.2,3-1.9,4.9-1.9c1.2,0,2.3,0.1,3.3,0.4c1.1,0.3,2.1,0.6,3,0.9c0.4-0.3,0.9-0.9,1.7-1.7c0.8-0.8,1.6-1.9,2.5-3.1
		c-0.8-3.2-1.5-5.7-2-7.3c-0.5-1.6-1-3.3-1.6-4.9c-0.4-1.3-1.1-2.3-1.9-3c-0.8-0.7-2.1-1.1-3.7-1.1c-0.7,0-1.5,0.1-2.4,0.4
		c-0.9,0.3-1.6,0.5-2.2,0.7l0.8-3.3c2.2-1,4.2-1.7,6.2-2.2c1.9-0.5,3.6-0.7,4.9-0.7c1.2,0,2.2,0.1,3,0.3c0.8,0.2,1.7,0.5,2.7,1.1
		c0.9,0.5,1.6,1.2,2.3,2c0.6,0.8,1.2,1.9,1.6,3.3c0.3,1,0.6,2,0.8,3c0.2,1,0.5,1.9,0.6,2.7c0.5-0.8,1-1.6,1.6-2.4
		c0.5-0.8,1-1.5,1.4-2.2c1.9-2.9,3.5-5,5-6.3c1.5-1.3,3.1-1.9,5-1.9c1.5,0,2.8,0.5,3.8,1.5C599.6,39.3,600.1,40.6,600.1,42.2z
		 M646,50.6c0,3.2-0.6,6.3-1.7,9.2c-1.1,2.9-2.7,5.5-4.7,7.6c-2.1,2.2-4.4,3.9-6.9,5.1c-2.6,1.2-5.4,1.8-8.5,1.8
		c-2.3,0-4.2-0.2-5.6-0.7c-1.4-0.4-2.6-1.1-3.7-1.9l-2.2,9.6c-0.1,0.3-0.1,0.6-0.2,1c-0.1,0.4-0.1,0.7-0.1,0.8
		c0,0.6,0.1,1.1,0.4,1.5c0.2,0.5,0.6,0.8,1.1,1c0.5,0.2,1.4,0.5,2.6,0.7c1.2,0.2,2.2,0.4,2.9,0.4l-0.6,2.5h-26.1l0.6-2.5
		c0.6-0.1,1.4-0.1,2.4-0.3c0.9-0.1,1.7-0.3,2.1-0.4c0.8-0.3,1.4-0.7,1.9-1.3c0.4-0.6,0.7-1.3,0.9-2.3l7.2-31.6
		c0.1-0.7,0.3-1.6,0.6-2.7c0.2-1.1,0.3-2,0.3-2.7c0-1.3-0.3-2.2-0.8-2.8c-0.5-0.6-1.6-0.8-3.2-0.8c-0.7,0-1.5,0.1-2.4,0.4
		s-1.5,0.5-2.1,0.7l0.8-3.3c2-0.8,3.8-1.5,5.6-2c1.8-0.6,3.5-0.8,5.1-0.8c1.3,0,2.5,0.1,3.5,0.4c1,0.3,1.9,0.7,2.7,1.2
		c0.7,0.5,1.2,1,1.6,1.7c0.4,0.7,0.8,1.3,1.1,2h0.3c2.2-1.9,4.4-3.4,6.5-4.3c2.1-0.9,4.1-1.4,6-1.4c4.2,0,7.3,1.2,9.4,3.7
		C644.9,43,646,46.3,646,50.6z M629.9,64.9c1-2.1,1.8-4.3,2.3-6.6c0.5-2.3,0.8-4.9,0.8-7.8c0-1.2-0.1-2.3-0.3-3.3
		c-0.2-1-0.5-1.9-0.9-2.6c-0.4-0.7-1-1.3-1.8-1.7c-0.7-0.4-1.7-0.6-2.8-0.6c-1.3,0-2.5,0.4-3.8,1.2s-2.1,1.5-2.7,2.2l-4.5,19.9
		c0,1.7,0.5,3,1.4,4.1c1,1.1,2.3,1.6,4.2,1.6c1.5,0,2.9-0.6,4.3-1.7C627.7,68.5,628.9,66.9,629.9,64.9z M688.3,44.3
		c0,1.1-0.2,2.1-0.5,3.1c-0.3,1-0.8,1.9-1.4,2.6c-0.7,0.8-1.4,1.4-2.2,1.8c-0.8,0.4-1.9,0.6-3.3,0.6c-1.8,0-3.2-0.4-4.3-1.3
		c-1-0.9-1.6-1.9-1.6-3c0-1,0.2-1.9,0.5-2.7c0.3-0.7,0.8-1.9,1.4-3.4c-1.6,0.7-3,1.5-4.2,2.5c-1.2,1-2.3,2.1-3.3,3.3l-5.7,25.6
		h-11.9l5-22.2c0.1-0.7,0.3-1.6,0.6-2.6c0.2-1.1,0.3-2,0.3-2.7c0-1.4-0.3-2.4-0.8-2.9c-0.5-0.5-1.6-0.8-3.1-0.8
		c-0.8,0-1.6,0.1-2.4,0.4c-0.8,0.2-1.5,0.5-2.1,0.7l0.8-3.3c1.9-0.8,3.8-1.5,5.6-2c1.8-0.6,3.5-0.8,5.1-0.8c2.8,0,5,0.6,6.4,1.7
		c1.4,1.1,2.3,2.7,2.8,4.7h0.3c2.4-2.5,4.4-4.3,6.1-5.3c1.7-1,3.4-1.5,5.4-1.5c2.1,0,3.7,0.6,4.9,1.9
		C687.8,40,688.3,41.9,688.3,44.3z M707.6,74.7c-2.9,0-5.4-0.4-7.6-1.2c-2.2-0.8-4-1.9-5.4-3.3c-1.4-1.4-2.4-3-3.1-4.9
		c-0.7-1.9-1-3.9-1-6.1c0-2.8,0.5-5.6,1.6-8.3c1.1-2.7,2.6-5.1,4.7-7.2c2-2,4.5-3.7,7.5-5s6.4-1.9,10.1-1.9c4.3,0,7.6,0.7,9.9,2.1
		c2.3,1.4,3.4,3.4,3.4,6.2c0,2.6-1,4.9-2.9,6.8s-4.6,3.3-8,4.2c-2.7,0.8-4.9,1.4-6.8,1.7c-1.9,0.3-4.2,0.7-6.9,0.9
		c0.1,1.1,0.2,2.3,0.4,3.6c0.2,1.3,0.6,2.5,1.1,3.4c0.6,1.1,1.4,1.9,2.5,2.6c1.1,0.6,2.4,1,4,1c2.8,0,5.3-0.5,7.2-1.6
		c2-1.1,3.9-2.8,5.7-5.2l2.6,2.2c-2.2,3.1-4.9,5.6-8.3,7.4C714.9,73.8,711.4,74.7,707.6,74.7z M715.8,46c0-2-0.4-3.6-1.1-4.7
		c-0.7-1.1-1.8-1.6-3.1-1.6c-1.9,0-3.6,1.5-5.3,4.5c-1.6,3-2.7,6.9-3.2,11.5c1.4-0.2,2.8-0.4,4.2-0.7c1.4-0.3,2.5-0.6,3.3-0.9
		c1.8-0.8,3.1-1.8,3.9-3.1S715.8,48.1,715.8,46z M744.9,74.7c-3,0-5.6-0.2-7.5-0.7c-2-0.5-3.6-1.1-4.7-1.9c-1.2-0.8-2-1.6-2.4-2.5
		c-0.4-0.9-0.7-1.7-0.7-2.5c0-1.4,0.5-2.6,1.6-3.7c1-1,2.4-1.6,4.2-1.6c1.4,0,2.7,0.4,3.6,1.1c1,0.7,1.8,1.7,2.4,2.8
		c0.6,1,1.1,2.2,1.5,3.4c0.4,1.3,0.7,2.2,0.9,2.8c2.7,0,4.8-0.6,6.2-1.8c1.4-1.2,2.1-2.8,2.1-4.8c0-0.9-0.2-1.6-0.6-2.2
		c-0.4-0.6-1-1.1-1.7-1.6c-0.7-0.4-1.6-0.9-2.7-1.3c-1.1-0.4-2.2-0.8-3.2-1.2c-2.9-1-5.2-2.4-6.9-4.1c-1.7-1.7-2.5-3.9-2.5-6.5
		c0-1.5,0.4-3,1.1-4.4c0.7-1.4,1.8-2.6,3.3-3.8c1.5-1.1,3.4-2,5.7-2.7c2.3-0.7,5-1,8-1c1.8,0,3.5,0.1,5.1,0.3c1.6,0.2,3,0.6,4.4,1.2
		c1.3,0.6,2.3,1.3,3,2.3c0.7,0.9,1.1,2.1,1.1,3.4c0,1.3-0.5,2.5-1.5,3.4c-1,1-2.3,1.4-3.9,1.4c-1.4,0-2.6-0.4-3.5-1.1
		c-0.9-0.7-1.7-1.6-2.3-2.6c-0.6-1-1-2.1-1.4-3.1c-0.3-1.1-0.6-2-0.8-2.7c-1.7,0.1-3.2,0.7-4.6,1.8c-1.4,1.1-2.1,2.5-2.1,4.2
		c0,1,0.2,1.8,0.5,2.4s0.8,1.1,1.3,1.4c0.6,0.4,1.4,0.8,2.4,1.2c1,0.4,2.1,0.8,3.6,1.3c3.3,1.2,5.7,2.5,7.4,4.2s2.5,3.7,2.5,6.4
		c0,1.7-0.4,3.4-1.2,5c-0.8,1.6-2,2.9-3.5,4c-1.7,1.2-3.6,2-5.7,2.6C751,74.4,748.2,74.7,744.9,74.7z M783.2,74.7
		c-3,0-5.6-0.2-7.5-0.7c-2-0.5-3.6-1.1-4.7-1.9c-1.2-0.8-2-1.6-2.4-2.5c-0.4-0.9-0.7-1.7-0.7-2.5c0-1.4,0.5-2.6,1.6-3.7
		c1-1,2.4-1.6,4.2-1.6c1.4,0,2.7,0.4,3.6,1.1c1,0.7,1.8,1.7,2.4,2.8c0.6,1,1.1,2.2,1.5,3.4c0.4,1.3,0.7,2.2,0.9,2.8
		c2.7,0,4.8-0.6,6.2-1.8c1.4-1.2,2.1-2.8,2.1-4.8c0-0.9-0.2-1.6-0.6-2.2c-0.4-0.6-1-1.1-1.7-1.6c-0.7-0.4-1.6-0.9-2.7-1.3
		c-1.1-0.4-2.2-0.8-3.2-1.2c-2.9-1-5.2-2.4-6.9-4.1c-1.7-1.7-2.5-3.9-2.5-6.5c0-1.5,0.4-3,1.1-4.4c0.7-1.4,1.8-2.6,3.3-3.8
		c1.5-1.1,3.4-2,5.7-2.7c2.3-0.7,5-1,8-1c1.8,0,3.5,0.1,5.1,0.3c1.6,0.2,3,0.6,4.4,1.2c1.3,0.6,2.3,1.3,3,2.3
		c0.7,0.9,1.1,2.1,1.1,3.4c0,1.3-0.5,2.5-1.5,3.4c-1,1-2.3,1.4-3.9,1.4c-1.4,0-2.6-0.4-3.5-1.1c-0.9-0.7-1.7-1.6-2.3-2.6
		c-0.6-1-1-2.1-1.4-3.1c-0.3-1.1-0.6-2-0.8-2.7c-1.7,0.1-3.2,0.7-4.6,1.8c-1.4,1.1-2.1,2.5-2.1,4.2c0,1,0.2,1.8,0.5,2.4
		s0.8,1.1,1.3,1.4c0.6,0.4,1.4,0.8,2.4,1.2c1,0.4,2.1,0.8,3.6,1.3c3.3,1.2,5.7,2.5,7.4,4.2s2.5,3.7,2.5,6.4c0,1.7-0.4,3.4-1.2,5
		c-0.8,1.6-2,2.9-3.5,4c-1.7,1.2-3.6,2-5.7,2.6C789.3,74.4,786.5,74.7,783.2,74.7z"/>
	<path d="M98.1,71.9h7.3l10-47.1h-7.3l0.3-1.4h42.9l-0.3,1.4h-9.4l-10,47.1h3.5c3,0,5.8-0.5,8.4-1.5c1.2-0.5,2.6-1.2,4.3-2.2
		c1.7-1,3.4-2.1,5.3-3.5c3.3-2.4,6.1-4.8,8.5-7.2c2.4-2.3,4.3-4.6,5.8-6.9h0.9l-4.9,22.8H97.8L98.1,71.9z M188.3,39.5
		c2.1,0.3,3.8,1.1,4.9,2.3c0.8,1,1.2,2,1.2,3.1c0,0.2,0,0.6-0.1,1c-0.4,2.1-1.7,3.8-3.7,5c-2,1.3-4.4,1.9-7,1.9
		c-2.4,0-4.2-0.6-5.4-1.8c-1-0.9-1.4-1.9-1.4-3.2c0-0.3,0-0.7,0.1-1.4c0.7-3,2.9-5.3,6.8-6.9c1.9-0.8,4.2-1.4,7-1.8
		c2.7-0.4,5.8-0.6,9.1-0.6c4.5,0,8.4,0.4,11.6,1.1c3.3,0.8,5.6,2,7,3.6c0.7,0.7,1.1,1.7,1.2,2.9c0,1-0.1,2-0.2,3.1
		c-0.1,1-0.3,1.9-0.3,2.5l-3.5,16.4c-0.2,0.7-0.3,1.3-0.3,1.7c0,0.1,0,0.3,0.1,0.3c0.2,0.2,0.4,0.4,0.8,0.4c0.9,0,1.7-0.7,2.6-2.1
		c0.8-1.5,1.5-3.5,2.1-5.9h1.5l-0.2,1c-0.8,4-2.6,7-5.2,9s-6.1,2.9-10.4,2.9c-1.5,0-2.8-0.1-3.9-0.3c-1.1-0.3-2.2-0.7-3.1-1.3
		c-1.7-0.9-2.9-2.4-3.6-4.6c-0.9,1-1.9,1.9-2.9,2.6c-1,0.8-2.3,1.4-3.7,2c-2.6,1.1-5.3,1.7-8.2,1.7c-3.5,0-6.2-1-8-3
		c-1.3-1.4-2-3.1-2-5.2c0-0.4,0-0.7,0-1c0-0.2,0.1-0.7,0.3-1.5c0.2-0.8,0.5-1.5,0.7-2.1c0.2-0.6,0.6-1.3,1.1-2c1-1.1,2.2-2,3.6-2.7
		c0.6-0.3,1.3-0.5,2-0.7c0.7-0.2,1.7-0.3,2.9-0.5c1.2-0.1,2.2-0.2,3.1-0.3c0.9-0.1,1.6-0.3,2.2-0.4c4.6-0.9,7.9-2,9.8-3.3
		c2-1.3,3.2-3.2,3.8-5.7c0.3-1.4,0.5-2.5,0.5-3.4c0-1.2-0.3-2.1-0.8-2.5c-0.9-0.8-2.8-1.3-5.9-1.3l-2.7,0.2L188.3,39.5z M197.1,61.5
		l2.2-10.4c-2.6,1.3-4.4,2.6-5.5,3.8c-1.1,1.3-1.9,2.6-2.4,4.2l-1.3,6.1c-0.2,1-0.3,1.8-0.3,2.3c0,0.3,0,0.5,0.1,0.6
		c0.1,0.4,0.6,0.7,1.3,0.7c1.3,0,2.5-0.6,3.5-1.9C195.7,65.6,196.5,63.9,197.1,61.5z M273.4,71.9h3.5l-0.3,1.4h-23.2l1.3-5.9
		c-1.6,2.1-3.7,3.8-6.1,5c-1.2,0.5-2.5,1-3.9,1.3c-1.4,0.3-2.8,0.5-4.2,0.5c-4.4,0-7.6-0.9-9.7-2.6c-1.4-1.2-2.1-2.9-2.1-5
		c0-0.4,0-0.7,0-1c0-0.3,0.1-0.8,0.3-1.6l5.2-24.5h-3.5l0.3-1.3h23.2l-6.6,30.8c0,0.2-0.1,0.3-0.1,0.5c0,0.3,0.1,0.5,0.2,0.7
		c0,0.1,0.2,0.2,0.3,0.2c0.2,0,0.4,0.1,0.6,0.1c1.2,0,2.7-1,4.3-2.9c1.6-1.9,2.6-4.2,3.2-6.9l4.6-21.3h-2.4l0.3-1.3h22L273.4,71.9z
		 M292.9,39.4h-3.4l0.3-1.3h23.1l-1.3,5.8c1.4-2,3.4-3.6,6.1-4.9c2.6-1.2,5.3-1.8,8.1-1.8c4.6,0,7.8,0.9,9.7,2.6
		c1.5,1.3,2.3,3,2.3,5.2c0,0.4,0,0.7,0,1.1c-0.1,0.6-0.2,1-0.3,1.3l-5.2,24.5h3.5l-0.3,1.4h-25.5l0.3-1.4h2.4l6.3-29.5
		c0-0.2,0.1-0.3,0.1-0.5c0-0.3-0.1-0.5-0.2-0.7c-0.3-0.2-0.6-0.3-0.9-0.3c-1.3,0-2.7,0.9-4.4,2.8c-1.6,1.9-2.7,4.2-3.2,6.8
		l-4.6,21.4h2.3l-0.3,1.4h-25.4l0.3-1.4h3.5L292.9,39.4z M374.6,24.8l0.3-1.4h23.4l-10.3,48.5h3.5l-0.3,1.4h-23.1l0.7-3.5
		c-1.3,1.5-2.8,2.6-4.3,3.2c-1.5,0.7-3.3,1.1-5.3,1.1c-5.4,0-9.6-1.7-12.5-5.2c-2-2.4-3.1-5.4-3.1-8.9c0-1,0-1.7,0.1-2.1
		c0-0.5,0.2-1.2,0.4-2.3c1.2-5.4,3.9-9.9,8.1-13.3c4.2-3.4,9-5.1,14.2-5.1c2,0,3.6,0.3,5,0.9c1.4,0.7,2.5,1.7,3.5,2.9l3.4-16.2
		H374.6z M367.6,41.4l-6.1,28.4c0,0.2-0.1,0.4-0.1,0.5c0,0.4,0.1,0.8,0.4,1.2c0.3,0.4,0.7,0.5,1.4,0.5c1.6,0,3-0.9,4.4-2.7
		c1.3-1.7,2.2-3.9,2.7-6.6l3.1-14.9c0.1-0.5,0.2-1.1,0.3-1.7c0-0.6,0-1.1,0.1-1.4c0-1.2-0.2-2.2-0.5-3c-0.7-1.6-1.8-2.4-3.1-2.4
		c-0.6,0-1.2,0.2-1.7,0.5C368,40.2,367.7,40.7,367.6,41.4z M424.4,71.9l-0.3,1.4H397l0.3-1.4h3.5l6.9-32.5h-3.4l0.3-1.3h23.1
		l-1.4,6.5c0.7-1.1,1.5-2.2,2.5-3.1c1-1,2.1-1.8,3.2-2.4c2.1-1.2,4.5-1.8,7.3-1.8c3.3,0,5.8,0.7,7.4,2.2c1.2,1,1.8,2.5,1.8,4.3
		c0,0.7,0,1.2-0.1,1.6c-0.3,1.7-1.5,3.3-3.5,4.7c-1.9,1.2-4.1,1.8-6.6,1.8c-2.6,0-4.5-0.6-5.7-1.7c-0.9-0.9-1.4-1.9-1.4-3.2
		c0-0.5,0.1-1,0.2-1.6c0.4-1.8,1.2-3.3,2.6-4.5c1.4-1.1,3.5-1.9,6.2-2.5h-0.9h-0.7c-3,0-5.8,1.3-8.7,3.8c-2.6,2.6-4.3,5.8-5.1,9.7
		l-4.2,20H424.4z M446.7,39.4l0.3-1.3h28.4l-0.3,1.3h-4.3l5.9,19l8.3-11.4c0.7-0.8,1-1.3,1.1-1.4c0.2-0.4,0.4-0.7,0.5-0.9
		c0-0.2,0.2-0.5,0.3-0.9c0.2-0.3,0.3-0.7,0.4-1c0-0.3,0.1-0.6,0.1-0.9c0-0.7-0.3-1.3-0.9-1.6c-0.8-0.6-2.2-0.9-4.1-0.9l0.3-1.3h14.1
		l-0.3,1.3c-2.8,0-5.7,2.1-8.9,6.3l-0.7,0.8l-19.6,26.9c-5.4,7.3-9.5,12-12.5,14.1c-3,2.1-6.2,3.2-9.8,3.2c-2.9,0-5.2-0.7-6.7-2.1
		c-1.1-1-1.7-2.3-1.7-3.9c0-0.2,0-0.7,0.1-1.5c0.4-2,1.6-3.6,3.4-4.9c1.8-1.3,3.9-2,6.2-2c2.3,0,4.1,0.7,5.4,2c1,1,1.6,2.3,1.6,3.6
		c0,0.2,0,0.6-0.1,1.1c-0.3,1.3-0.9,2.4-1.7,3.4c-0.7,1-1.7,1.8-3,2.6c2.2,0,4.8-1.5,7.9-4.4c3-2.9,4.7-5.2,5.1-7.1l0.2-1.9
		c0-0.4-0.1-0.7-0.1-1c0-0.2-0.1-0.6-0.3-1L451,39.4H446.7z"/>
	<g>
		<g>
			<path class="st1" d="M69.9,81.5c0,0,3.1-62.1,2.4-64C69.7,10.3,61.9,3.9,61.9,3.9L47.6,23.1l-3.8-7c0,0-5.8,7.1-8.3,11.9
				C33,33,31,39.8,31,39.8L69.9,81.5z"/>
			
				<linearGradient id="SVGID_1_" gradientUnits="userSpaceOnUse" x1="-51.3463" y1="773.5643" x2="-62.4674" y2="773.5643" gradientTransform="matrix(0.6818 0.7315 -0.7315 0.6818 664.1419 -448.8035)">
				<stop  offset="0" style="stop-color:#99C36A"/>
				<stop  offset="0.1646" style="stop-color:#A1CB6F"/>
				<stop  offset="0.4691" style="stop-color:#AAD474"/>
				<stop  offset="1" style="stop-color:#ACD676"/>
			</linearGradient>
			<path class="st2" d="M72.3,17.5c1.2,3.4-33,31.2-33,31.2l6.7,7.2L72,32.9C72.3,24.4,72.5,18,72.3,17.5z"/>
			
				<linearGradient id="SVGID_00000103254000546887697070000002135041322937314481_" gradientUnits="userSpaceOnUse" x1="-60.9024" y1="772.5883" x2="-82.9066" y2="772.5883" gradientTransform="matrix(0.6818 0.7315 -0.7315 0.6818 664.1419 -448.8035)">
				<stop  offset="0" style="stop-color:#99C36A"/>
				<stop  offset="0.1554" style="stop-color:#A3CD70"/>
				<stop  offset="0.4043" style="stop-color:#AAD475"/>
				<stop  offset="1" style="stop-color:#ACD676"/>
			</linearGradient>
			<path style="fill:url(#SVGID_00000103254000546887697070000002135041322937314481_);" d="M72.3,17.5C69.7,10.3,61.9,3.9,61.9,3.9
				L47.6,23.1l-3.8-7c0,0-5.8,7.1-8.3,11.9C33,33,31,39.8,31,39.8l8.3,8.9C39.3,48.6,73.5,20.9,72.3,17.5z"/>
		</g>
		<g>
			<path class="st4" d="M69.9,81.5c0,0-11.2-61.2-12.3-62.9C53.5,12.2,44.4,7.8,44.4,7.8l-9.5,21.9l-5.3-6c0,0-4.1,8.2-5.3,13.5
				c-1.3,5.4-1.7,12.5-1.7,12.5L69.9,81.5z"/>
			
				<linearGradient id="SVGID_00000112631368588704410330000002006765067386866099_" gradientUnits="userSpaceOnUse" x1="-87.2276" y1="568.9043" x2="-98.3486" y2="568.9043" gradientTransform="matrix(0.831 0.5562 -0.5562 0.831 443.1346 -380.5933)">
				<stop  offset="0" style="stop-color:#B372A8"/>
				<stop  offset="5.014211e-02" style="stop-color:#B775AC"/>
				<stop  offset="0.2668" style="stop-color:#C47DBA"/>
				<stop  offset="0.534" style="stop-color:#CC82C3"/>
				<stop  offset="1" style="stop-color:#CE84C5"/>
			</linearGradient>
			<path style="fill:url(#SVGID_00000112631368588704410330000002006765067386866099_);" d="M57.6,18.6c2,3.1-25,37.9-25,37.9
				l8.2,5.5l20.1-28.3C59.2,25.4,57.9,19.1,57.6,18.6z"/>
			
				<linearGradient id="SVGID_00000010289547037549947440000018382946346182973617_" gradientUnits="userSpaceOnUse" x1="-96.7836" y1="567.9283" x2="-118.7878" y2="567.9283" gradientTransform="matrix(0.831 0.5562 -0.5562 0.831 443.1346 -380.5933)">
				<stop  offset="0" style="stop-color:#B372A8"/>
				<stop  offset="6.702387e-02" style="stop-color:#BA77B0"/>
				<stop  offset="0.2338" style="stop-color:#C57EBC"/>
				<stop  offset="0.4598" style="stop-color:#CC83C3"/>
				<stop  offset="1" style="stop-color:#CE84C5"/>
			</linearGradient>
			<path style="fill:url(#SVGID_00000010289547037549947440000018382946346182973617_);" d="M57.6,18.6C53.5,12.2,44.4,7.8,44.4,7.8
				l-9.5,21.9l-5.3-6c0,0-4.1,8.2-5.3,13.5c-1.3,5.4-1.7,12.5-1.7,12.5l10.1,6.7C32.6,56.5,59.6,21.7,57.6,18.6z"/>
		</g>
		<g>
			<path class="st7" d="M69.9,81.5c0,0-28.9-55.1-30.4-56.3c-5.9-4.9-15.8-6.4-15.8-6.4l-2.5,23.8l-6.9-4.1c0,0-1.4,9.1-1.1,14.5
				c0.4,5.5,2.1,12.4,2.1,12.4L69.9,81.5z"/>
			
				<linearGradient id="SVGID_00000114064411336617680110000005904031977756065693_" gradientUnits="userSpaceOnUse" x1="43.7766" y1="50.0264" x2="33.0834" y2="46.9602">
				<stop  offset="0" style="stop-color:#E34C2B;stop-opacity:0.5"/>
				<stop  offset="1" style="stop-color:#E27664"/>
			</linearGradient>
			<path style="fill:url(#SVGID_00000114064411336617680110000005904031977756065693_);" d="M39.4,25.1c2.8,2.3-12.6,43.6-12.6,43.6
				l9.4,2.8l10.8-33C43,31.1,39.9,25.5,39.4,25.1z"/>
			
				<linearGradient id="SVGID_00000145056838831837199150000015619973484952515467_" gradientUnits="userSpaceOnUse" x1="-70.0585" y1="296.2012" x2="-93.2029" y2="298.8299" gradientTransform="matrix(0.9589 0.2837 -0.2837 0.9589 187.7614 -218.4142)">
				<stop  offset="0" style="stop-color:#E34C2B;stop-opacity:0.8"/>
				<stop  offset="2.697390e-03" style="stop-color:#E34D2C;stop-opacity:0.8015"/>
				<stop  offset="7.988221e-02" style="stop-color:#E35F45;stop-opacity:0.8459"/>
				<stop  offset="0.1605" style="stop-color:#E26C56;stop-opacity:0.8922"/>
				<stop  offset="0.2469" style="stop-color:#E27461;stop-opacity:0.9418"/>
				<stop  offset="0.3481" style="stop-color:#E27664"/>
			</linearGradient>
			<path style="fill:url(#SVGID_00000145056838831837199150000015619973484952515467_);" d="M39.4,25.1c-5.9-4.9-15.8-6.4-15.8-6.4
				l-2.5,23.8l-6.9-4.1c0,0-1.4,9.1-1.1,14.5c0.4,5.5,2.1,12.4,2.1,12.4l11.6,3.4C26.8,68.7,42.2,27.5,39.4,25.1z"/>
		</g>
		<g>
			<path class="st10" d="M69.9,81.5c0,0-43.4-44.6-45.2-45.4c-7-3-17-1.6-17-1.6L12,58L4.3,60c0,0,1.2,5,3.1,10.1
				c1.9,5.2,5.5,11.3,5.5,11.3H69.9z"/>
			
				<linearGradient id="SVGID_00000173875941827323541600000011456430693794658495_" gradientUnits="userSpaceOnUse" x1="35.828" y1="58.7773" x2="24.7069" y2="58.7773">
				<stop  offset="0" style="stop-color:#15BEE3"/>
				<stop  offset="0.2125" style="stop-color:#17CAEC"/>
				<stop  offset="0.4995" style="stop-color:#19D3F2"/>
				<stop  offset="1" style="stop-color:#19D5F4"/>
			</linearGradient>
			<path style="fill:url(#SVGID_00000173875941827323541600000011456430693794658495_);" d="M24.7,36.1c3.3,1.5,0.3,45.4,0.3,45.4
				h9.8l1-34.7C29.8,40.8,25.3,36.3,24.7,36.1z"/>
			
				<linearGradient id="SVGID_00000013160159333469453650000011514280807189366931_" gradientUnits="userSpaceOnUse" x1="26.2719" y1="57.8013" x2="4.2678" y2="57.8013">
				<stop  offset="0" style="stop-color:#15BEE3"/>
				<stop  offset="1.589131e-02" style="stop-color:#15C0E4"/>
				<stop  offset="0.1919" style="stop-color:#17CCED"/>
				<stop  offset="0.4301" style="stop-color:#19D3F3"/>
				<stop  offset="1" style="stop-color:#19D5F4"/>
			</linearGradient>
			<path style="fill:url(#SVGID_00000013160159333469453650000011514280807189366931_);" d="M24.7,36.1c-7-3.1-17-1.6-17-1.6L12,58
				L4.3,60c0,0,1.2,5,3.1,10.1c1.9,5.2,5.5,11.3,5.5,11.3H25C25,81.5,28.1,37.5,24.7,36.1z"/>
		</g>
	</g>
</g>
</svg>
