<svg enable-background="new 0 0 890.4 224.5" version="1.1" viewBox="0 0 890.4 224.5" xml:space="preserve" xmlns="http://www.w3.org/2000/svg">
	<style type="text/css">
		.st01{fill-rule:evenodd;clip-rule:evenodd;fill:#FFFFFF;}
	</style>
	<path class="st01" d="m223.6 166c0.7-1.5 1.7-2.9 2.8-4.2 2.9-3.2 6.9-5.6 11.3-7 1-0.3 2-0.4 3-0.4 0.6 0 1.1 0.1 1.6 0.4s0.9 0.8 0.9 1.3c0 0.4-0.1 0.8-0.3 1.2-0.4 0.8-1 1.5-1.7 2.2-0.8 0.7-1.8 1.3-2.8 1.8-0.7 0.4-1.4 0.7-2.2 1.1-1.3 0.6-2.7 1.1-4.1 1.7-1.6 0.6-3.2 1-4.9 1.3l-3.6 0.6m83-0.1c2.1-1.7 4.2-3.4 6.2-5.2l-0.2 1c-0.5 3.5-1.6 7-3.3 10.4-0.7 1.5-1.6 2.9-2.8 4.2-0.9 0.9-1.8 1.7-2.8 2.5h-0.7c-1.5 0.1-3.1 0.1-4.6 0-0.9-0.1-1.8-0.2-2.7-0.2h-1.4c-0.3 0-0.6 0.1-0.9 0.3s-0.6 0.5-0.8 0.7c-0.2 0.4-0.4 0.8-0.6 1.1-0.3 0.7-0.3 1.4-0.2 2.1s0.5 1.3 1.1 1.8c2 1.6 4.8 2.3 7.7 2 1.8-0.2 3.6-0.6 5.4-1.1h0.7c1.9 0.1 3.9 0.1 5.9-0.2 4.3-0.8 8.4-2.1 12.3-4 7.2-3.5 14-7.7 20.3-12.5 0 0 0.8-0.8 0.9-1.8 0.1-0.9-0.5-2.1-0.8-2.5-0.3-0.5-0.8-1.2-1.6-1.4-1.1-0.2-1.9 0.1-1.9 0.1l-9.2 6.1c-5 3.3-10.5 5.9-16.3 7.6 1-1.2 2-2.5 2.9-3.7 2.2-3.6 3.7-7.4 4.4-11.3l1.9-10.8c0.2-0.9 0.4-1.8 0.8-2.7 0.3-0.6 0.6-1.2 1.1-1.8 1.1-1.5 2.1-2.9 3.1-4.4 0.3-0.5 0.6-1.1 0.8-1.6 0.2-0.4 0.2-0.8 0.1-1.2-0.1-0.5-0.3-0.9-0.7-1.3-1.1-1.3-2.7-2.3-4.5-2.8-0.9-0.2-2-0.1-2.9 0.3-0.9 0.5-1.7 1.1-2.3 1.8-1.1 1.3-2 2.7-2.7 4.1-1.1 2.3-1.8 4.7-2.2 7.1-6 5.7-8.9 9.5-15.6 14.6l-7 6c-5 3.3-10.5 5.9-16.3 7.6 1-1.2 2-2.5 2.9-3.7 2.2-3.6 3.7-7.4 4.4-11.3l1.9-10.8c0.2-0.9 0.4-1.8 0.8-2.7 0.3-0.6 0.6-1.2 1.1-1.8 1.1-1.5 2.1-2.9 3.1-4.4 0.3-0.5 0.6-1.1 0.8-1.6 0.2-0.4 0.2-0.8 0.1-1.2-0.1-0.5-0.3-0.9-0.6-1.3-1.1-1.3-2.7-2.3-4.5-2.8-0.9-0.2-2-0.1-2.8 0.3-0.9 0.5-1.7 1.1-2.3 1.8-1.1 1.3-2 2.7-2.7 4.1-1.1 2.3-1.8 4.7-2.2 7.1-6 5.7-12.4 11.1-19.1 16.1 0 0-8.9 7.3-13.4 9.7-4.3 2.3-9.1 3.6-13.9 4-1.9 0.1-3.7-0.1-5.3-0.8-1.3-0.5-2.2-1.5-2.7-2.6-0.2-0.6-0.3-1.3-0.4-2l2.2-0.3c3.8-0.4 7.6-1.2 11.3-2.4 5.7-1.7 10.8-4.7 14.9-8.6 1.9-1.9 3.3-4.1 3.9-6.5 0.8-2.9-0.3-5.7-2.9-7.2-2.3-1.3-5-1.9-7.9-1.8-6 0.3-12 1.9-17.3 4.7-6.3 3.1-11.2 7.8-13.8 13.3-5.1 4-10.5 7.7-16.2 10.9-1 0.6-2 1.1-3.1 1.5-0.4 0.2-0.8 0.3-1.2 0.3h-0.6c-0.5-0.2-0.8-0.6-0.8-1 0-0.2 0.1-0.5 0.1-0.7 0.3-1 0.8-1.9 1.3-2.8l6-9.9c3.4-6 7.1-11.9 11.2-17.6 4.7-5.8 8.9-11.8 12.6-17.9 2.5-4.2 4.4-8.6 5.7-13.1 0.3-1 0.6-2.1 0.4-3.1-0.2-1.3-1.2-2.8-3.6-2.8s-4 1.3-4.7 2.1c-0.8 0.8-1.4 1.7-2 2.6l-7.2 12.1-23.3 38.2-1.7 2.8c-5 3.6-10.3 6.8-15.9 9.5-1.3 0.7-2.8 1.3-4.3 1.8-0.6 0.2-1.2 0.3-1.8 0.3-0.2 0-0.4 0-0.6-0.1-0.4-0.2-0.7-0.5-0.7-0.9 0-0.2 0.1-0.4 0.1-0.6 0.2-0.5 0.4-1 0.7-1.5l4.3-6.9 16.5-26.1h5.2 2.7c0.3 0 0.6-0.1 0.9-0.1 0.3-0.1 0.6-0.2 0.8-0.4s0.3-0.4 0.5-0.6c0.6-0.9 1.1-1.8 1.5-2.7 0.2-0.5 0.4-1 0.5-1.5 0.1-0.7-0.3-1.3-1-1.5-0.3-0.1-0.7-0.1-1-0.1h-5.7l4.7-7.5 4.6-7.5c0.5-0.9 1-1.9 1.3-2.9 0.2-0.9 0.1-1.7-0.3-2.5-0.5-1.1-1.8-1.7-3.3-1.6-0.8 0.1-1.7 0.3-2.4 0.7-1.4 0.7-2.6 1.7-3.6 2.8-1.6 1.9-3.1 3.8-4.3 5.9l-7.4 12.7h-12.3c-0.3 0-0.6 0-0.9 0.1s-0.7 0.2-0.9 0.4-0.4 0.5-0.5 0.7c-0.5 0.9-0.9 1.9-1.2 2.9-0.1 0.4-0.2 0.7-0.2 1.1s0.2 0.8 0.5 1.1c0.3 0.2 0.6 0.4 1 0.5 0.7 0.2 1.4 0.2 2.1 0.3h8l-15.4 24.4-0.7 0.7c-0.7 0.5-1.3 0.9-2 1.4-2.3 1.6-5 2.8-7.8 3.5-0.7 0.2-1.4 0.2-2 0.2l-1.1-0.1c1-1.3 1.9-2.7 2.8-4.1 1.2-1.8 2.1-3.8 2.7-5.8 0.2-0.9 0.3-1.7 0.3-2.6-0.2-1.5-1.4-2.7-3.1-3.1-1.6-0.3-3.4 0.1-4.9 1-1.3 0.8-2.4 1.7-3.3 2.8-3 3.7-4.6 7.9-4.7 12.1l-2.5 2.5c-1.5 1.4-3.2 2.5-5.2 3.4-1.3 0.6-2.7 0.8-4.1 0.7s-2.5-0.8-3-1.8c-0.3-0.5-0.4-1.1-0.5-1.7-0.6-4.9 1.6-10 6-13.8 3.5-2.9 7.8-5.1 12.3-6.4l4.9-1.5c0.8-0.2 1.5-0.6 2.2-1 0.5-0.3 1-0.8 1.3-1.3 0.3-0.7 0.4-1.4 0.3-2.1-0.5-2.4-2.8-4.1-5.7-4.1-1.5 0-3 0.2-4.5 0.6-4.1 1.1-8 2.7-11.6 4.7-7.4 3.8-13 9.8-15.6 16.7-1.7 1.2-3.5 2.4-5.3 3.6-3.5 2.3-7.2 4.3-11 6.1-1.3 0.6-2.8 1.1-4.2 1.3-1.2 0.1-2.4 0.2-3.6 0.2l4.1-3.1c4.9-3.6 8.6-8.2 10.8-13.2 1.2-2.6 1.5-5.4 0.9-8-0.5-2.4-2.2-4.4-4.7-5.5-2.8-1.1-6.1-1.2-9.2-0.3-2.9 0.9-5.7 2.2-8.2 3.9-3.8 2.7-7.2 5.8-10.1 9.2l6.7-11 0.3-0.6c0-0.1 0.1-0.3 0-0.4-0.1-0.2-0.2-0.4-0.4-0.6-0.2-0.1-0.4-0.2-0.6-0.2-1.3-0.2-2.6-0.3-4-0.3-0.8 0-1.6 0.1-2.4 0.3-0.6 0.2-1.1 0.4-1.6 0.8l-0.1 0.1c-0.2 0.2-0.4 0.5-0.5 0.8l-8 13.3c-0.6 0.9-1.1 1.8-1.7 2.7l-4.9 3.2c-5 3.3-10.5 5.9-16.3 7.6 1-1.2 2-2.5 2.9-3.7 2.2-3.6 3.7-7.4 4.4-11.3l1.9-10.8c0.2-0.9 0.4-1.8 0.8-2.7 0.3-0.6 0.6-1.2 1.1-1.8 1.1-1.5 2.1-2.9 3.1-4.4 0.3-0.5 0.6-1.1 0.8-1.6 0.2-0.4 0.2-0.8 0.1-1.2-0.1-0.5-0.3-0.9-0.7-1.3-1.1-1.3-2.7-2.3-4.5-2.8-0.9-0.2-2-0.1-2.9 0.3-0.9 0.5-1.7 1.1-2.3 1.8-1.1 1.3-2 2.7-2.7 4.1-1 2.3-1.8 4.7-2.2 7.1-6 5.7-12.4 11.1-19.1 16.1 0 0-1.8 1.9 0.2 4.2 1 1.2 2.7 1.5 4.1 0.8 4-2.9 7.7-5.9 11.3-9.2l-0.2 1c-0.5 3.5-1.6 7-3.3 10.4-0.7 1.5-1.6 2.9-2.8 4.2-0.9 0.9-1.8 1.7-2.8 2.5h-0.7c-1.5 0.1-3.1 0.1-4.6 0-0.9-0.1-1.8-0.2-2.7-0.2h-1.4c-0.3 0-0.6 0.1-0.9 0.3s-0.6 0.5-0.7 0.7c-0.2 0.4-0.4 0.8-0.6 1.1-0.3 0.7-0.3 1.4-0.2 2.1s0.5 1.3 1.1 1.8c2 1.6 4.8 2.3 7.7 2 1.8-0.2 3.6-0.6 5.4-1.1h0.7c1.9 0.1 3.9 0.1 5.9-0.2 4.3-0.8 8.4-2.1 12.3-4 1.7-0.8 3.3-1.7 5-2.6-5.3 9.1-10.3 18.3-15 27.7-1.1 2.3-2 4.7-2.6 7.2-0.2 0.9-0.2 1.8 0.1 2.7 0.4 1.3 1.6 2.2 3.2 2.2 1.8 0 3.6-0.7 5-1.8 1.2-1 2.1-2.2 2.8-3.5 1.5-2.8 2.8-5.7 3.9-8.7 2.3-5.9 5.1-11.6 8.2-17.3 2.5-4.6 5.5-9 8.7-13.2 5.1-6.3 11.7-11.7 19.2-15.8 1.2-0.7 2.5-1.2 3.9-1.6 0.5-0.1 1.1-0.2 1.6-0.2 0.8 0 1.5 0.4 1.7 1.1 0.1 0.3 0.1 0.6 0 1-0.1 0.8-0.4 1.5-0.7 2.3-1.6 3.5-3.8 6.8-6.7 9.7-2.9 3-6.2 5.7-9.7 8.1l-5.1 0.1c-0.9 0-1.8 0-2.7 0.1-1.1 0.1-2.1 0.8-2.5 1.7-0.1 0.3-0.2 0.6-0.2 0.9 0.1 2.4 1.9 4.3 4.5 4.9 1.9 0.4 3.9 0.3 5.8-0.3 1.4-0.4 2.8-1 4.2-1.6l1.4 0.4c3.2 0.9 6.7 0.9 10.1 0.2 5-1.1 9.8-3.1 14.1-5.7 1.9-1.1 3.7-2.3 5.6-3.5 0 1.2 0.2 2.3 0.4 3.5 0.8 3.8 4.2 6.6 8.6 7.3 5 0.7 10.3-0.4 14.8-3 2.6-1.5 5-3.2 7.3-5 0.4 0.2 0.7 0.4 1.1 0.6 0.8 0.4 1.8 0.7 2.8 0.8 1.2 0.1 2.5 0 3.8-0.3 1.8-0.4 3.5-1 5.1-1.7-0.2 0.5-0.5 1-0.7 1.6-0.4 1.1-0.7 2.2-0.7 3.3 0 1.6 1 3 2.7 3.7 1.2 0.5 2.5 0.7 3.8 0.6 3.4-0.1 6.7-0.9 9.9-2.2 4.5-1.8 8.8-4 12.9-6.3-0.2 0.5-0.3 0.9-0.4 1.4-0.3 1.1-0.3 2.2-0.1 3.2 0.1 0.8 0.6 1.5 1.2 2 1.1 0.9 2.7 1.4 4.3 1.5 1.3 0 2.7-0.1 4-0.4 3.8-0.9 7.5-2.4 10.8-4.3 4-2.4 8-4.9 11.8-7.6 0 0.5 0.1 1 0.1 1.5 0.3 3.7 2.5 6.9 6.1 8.7 3.4 1.7 7.5 2.4 11.7 2.1 5.1-0.3 10.2-1.7 14.8-3.8 8.8-4.1 24.7-17.3 24.7-17.3 2-1.6 3.9-3.2 5.7-4.9l-0.2 1c-0.5 3.5-1.6 7-3.3 10.4-0.7 1.5-1.6 2.9-2.8 4.2-0.9 0.9-1.8 1.7-2.8 2.5h-0.7c-1.5 0.1-3.1 0.1-4.6 0-0.9-0.1-1.8-0.2-2.7-0.2h-1.4c-0.3 0-0.6 0.1-0.9 0.3s-0.6 0.5-0.8 0.7c-0.2 0.4-0.4 0.8-0.6 1.1-0.3 0.7-0.3 1.4-0.2 2.1s0.5 1.3 1.1 1.8c2 1.6 4.8 2.3 7.7 2 1.8-0.2 3.6-0.6 5.4-1.1h0.7c1.9 0.1 3.9 0.1 5.9-0.2 4.3-0.8 8.4-2.1 12.3-4 7.8-3.3 21.3-15.1 21.3-15.1zm259-100.8c0.7-1.5 1.7-2.9 2.8-4.2 2.9-3.2 6.9-5.6 11.3-7 1-0.3 2-0.4 3-0.5 0.6 0 1.1 0.1 1.6 0.4s0.9 0.8 0.9 1.3c0 0.4-0.1 0.8-0.3 1.2-0.4 0.8-1 1.5-1.7 2.2-0.8 0.7-1.8 1.3-2.8 1.8-0.7 0.4-1.4 0.7-2.2 1.1-1.3 0.6-2.7 1.1-4.1 1.7-1.6 0.6-3.2 1-4.9 1.3l-3.6 0.7m-13.1 8.1c0 0.6 0.1 1.1 0.1 1.7 0.3 3.7 2.5 6.9 6.1 8.7 3.4 1.7 7.5 2.4 11.7 2.1 5.1-0.3 10.2-1.7 14.8-3.8 8.8-4.1 17-9.2 24.4-15.1 0 0 1.8-1.9-0.3-4.2-1.8-1.9-4.9-0.2-4.9-0.2-5.6 4.1-11.6 7.9-17.8 11.2-4.3 2.3-9.1 3.6-13.9 4-1.9 0.1-3.7-0.1-5.3-0.8-1.3-0.5-2.2-1.5-2.7-2.6-0.2-0.6-0.3-1.3-0.4-2l2.2-0.3c3.8-0.4 7.6-1.2 11.3-2.4 5.7-1.7 10.8-4.7 14.9-8.6 1.9-1.9 3.3-4.1 3.9-6.5 0.8-2.9-0.3-5.7-2.9-7.2-2.3-1.3-5-1.9-7.9-1.8-6 0.3-12 1.9-17.3 4.7-6.4 3.1-11.3 8-13.9 13.5-2.3 1.5-4.6 3-7 4.4-1.2 0.7-2.4 1.4-3.7 1.9-0.8 0.4-1.7 0.6-2.6 0.7h-0.8c-0.8-0.2-1.5-0.4-2.2-0.6l3.1-3.8c3.6-4.3 6.2-9.1 7.5-14.1 0.3-0.9 0.4-1.8 0.3-2.7 0-0.7-0.3-1.3-0.7-1.8s-1-0.8-1.7-0.8c-0.8 0-1.6 0.1-2.4 0.4-1.4 0.5-2.6 1.2-3.7 2.1-1.7 1.4-3.2 3-4.4 4.7-3.3 4.3-5.7 9-7.2 13.8-2.8 3-6 5.7-9.6 8-1.4 0.9-2.9 1.6-4.4 2.1-0.7 0.2-1.5 0.4-2.3 0.4-1 0-1.9-0.5-2.2-1.2-0.1-0.4-0.2-0.8 0-1.3s0.4-1 0.7-1.5l2.1-3.2 13-19.3 0.6-0.8c0.4-0.5 0.7-1 0.9-1.5 0.1-0.2 0.2-0.5 0.2-0.7s0-0.3-0.1-0.4c-0.2-0.3-0.5-0.5-0.8-0.6s-0.6-0.1-0.9-0.1c-1.6-0.1-3.3-0.1-4.9 0-1.8 0.1-3.5 0.9-4.4 2.3l-1 1.4-7.4 10.6h-0.4c-3.3 2.4-6.6 4.8-10.1 7-3.7 2.5-7.6 4.9-11.6 7-0.8 0.4-1.6 0.7-2.4 1-0.4 0.1-0.9 0.2-1.3 0.2-0.2 0-0.5-0.1-0.7-0.2-0.4-0.2-0.7-0.6-0.7-1s0-0.7 0.1-1.1c0.2-0.8 0.5-1.6 1-2.3l6.2-9.7c0.5-0.8 1-1.5 1.4-2.3l0.3-0.6c0.1-0.2 0-0.5-0.1-0.7s-0.4-0.3-0.6-0.4c-0.3-0.1-0.7-0.2-1-0.2-1.3-0.1-2.6-0.2-4-0.1-0.9 0-1.9 0.1-2.8 0.4-0.5 0.1-1 0.4-1.5 0.7-0.4 0.3-0.7 0.6-1.1 1l-1.9 2.4c-3.2 3.8-6.9 7.3-11 10.4-1.8 1.3-3.9 2.3-6.2 2.7-0.5 0.1-1.1 0.1-1.6 0.1-1-0.1-1.7-0.7-2-1.5-0.2-0.5-0.3-1-0.3-1.5 0-4.3 2.1-8.5 5.8-11.8 5.3-4.5 12-7.5 19-8.5 2.9-0.5 5.8-0.4 8.4 0.3 0.8 0.2 1.6 0.5 2.3 0.8 0.1 0.1 0.3 0.1 0.4 0.1s0.3 0 0.5-0.1c0.1-0.1 0.3-0.2 0.4-0.3 0.1-0.2 0.2-0.3 0.3-0.5 0.2-0.5 0.4-1.1 0.5-1.6 0.2-1.4 0.1-2.8-0.1-4.2-0.1-0.4-0.2-0.7-0.3-1l-0.3-0.3c-0.2-0.1-0.3-0.2-0.5-0.2-0.4-0.1-0.8-0.2-1.2-0.2-10.1-1.2-20.7 0.8-30.1 5.5-7.5 3.5-13 9.3-15.5 15.8-3.9 2.5-7.9 4.9-12.1 7-1.4 0.8-2.9 1.3-4.5 1.7-0.6 0.1-1.1 0.2-1.7 0.2-0.5 0-0.9-0.1-1.3-0.3-0.2-0.1-0.3-0.3-0.4-0.4-0.1-0.2-0.1-0.3 0-0.5 0-0.2 0.1-0.5 0.2-0.7 0.3-0.5 0.6-1 1-1.5 4.5-5.4 8.7-10.9 12.6-16.5 1-1.4 1.7-2.9 2.1-4.4 0.2-0.8 0.2-1.6 0-2.4-0.6-1.6-2.3-2.6-4.3-2.6-1.3 0-2.6 0.2-3.8 0.7-2.2 0.8-4.3 1.8-6.4 2.9-10.3 5.8-20.1 12.3-29.2 19.4 6.1-9.7 12.7-19.2 19.6-28.6 5.7-7 10.7-14.4 14.9-22.1 1.4-2.6 2.5-5.2 3.2-7.9 0.2-0.8 0.3-1.5 0.1-2.3-0.1-0.7-0.5-1.3-1.1-1.8-1.3-0.8-3-0.9-4.6-0.3-1 0.4-2 1-2.8 1.8-1.1 1.1-2.1 2.2-2.9 3.5l-9.3 15-11.2 18.1-13.3 20.9-9.8 15.8c-0.3 0.5-0.6 1-0.8 1.6-0.1 0.2-0.1 0.4-0.1 0.6s0.1 0.4 0.2 0.5 0.3 0.2 0.5 0.3c1.3 0.5 2.8 0.8 4.3 0.8 0.9 0 1.8-0.2 2.5-0.7 0.9-0.5 1.7-1 2.4-1.6 4.1-3.2 8.3-6.2 12.6-9.1l19.8-13.2c0.7-0.5 1.5-0.9 2.2-1.3 0.2-0.1 0.4-0.2 0.7-0.3h0.2 0.1c0.1 0 0.1 0 0.1 0.1l0.1 0.1v0.2c0 0.1 0 0.3-0.1 0.4-0.1 0.3-0.3 0.6-0.5 0.9l-9.4 12.9c-1.2 1.5-2.3 3.1-3.1 4.8-0.4 0.8-0.7 1.7-0.8 2.5-0.1 1.3 0.3 2.5 1.1 3.4 0.9 0.8 2.2 1.3 3.6 1.5 1.3 0.1 2.6 0 3.9-0.2 3.5-0.6 7-1.7 10.2-3.2 4.8-2.2 9.4-4.6 13.9-7.3 0 0.4 0.1 0.8 0.1 1.3 0.1 2.3 1.1 4.4 2.8 6.1 2 1.8 4.9 2.7 8 2.5 4.1-0.3 8.1-1.9 11.2-4.5 2-1.7 4-3.4 5.9-5.2l-1.5 4c-0.2 0.6-0.4 1.3-0.5 1.9-0.2 1.1 0.2 2.2 1.1 3 0.8 0.6 1.8 1 2.9 1.2 2.3 0.4 4.9 0.2 7.2-0.7 3.8-1.3 7.5-3 11-4.8 2.6-1.3 5.1-2.8 7.6-4.3-0.4 1.3-0.5 2.6-0.4 3.9 0.1 1.4 0.8 2.7 2 3.6 2.2 1.7 5 2.6 8.1 2.6 4.5-0.1 9-1.3 13-3.4 3.2-1.8 6.2-3.9 9-6.3l0.8 0.6c0.8 0.6 1.7 1.1 2.7 1.6 1.1 0.4 2.3 0.5 3.5 0.4 2.4-0.3 4.8-1 7-2.1 2.2-1.2 4.4-2.4 6.5-3.7zm-332.9-28.6s-1.4 3.2-0.2 4.1c0.1 0.1 0.4 0.1 0.6 0.1s0.5 0 0.7-0.1c0.6-0.1 1.2-0.3 1.7-0.5 1.7-0.7 3.3-1.4 5-2.2 1-0.5 2.1-1 3-1.6 0.8-0.5 1.5-1.1 2-1.9 0.4-0.7 0.8-1.4 1.2-2.2 1.4-3.4 3.2-6.6 5.4-9.8 2.7-4.1 6.5-7.6 11-10.3 1.3-0.8 2.8-1.3 4.3-1.7 0.7-0.2 1.4-0.2 2-0.2 1.1 0.1 1.9 0.7 2.1 1.6 0.1 0.6 0.1 1.1-0.1 1.7-0.3 1.1-0.8 2.2-1.5 3.2l-17.7 26.6-14.7 21.7c-1.1 1.6-1.8 3.3-2.3 5-0.7 2.7 0.5 5.2 3.2 6.4 3.1 1.4 7 1.1 10.2-0.7 2.7-1.5 5.3-3.2 7.6-5.2 13.9-12 27.5-24.3 40.7-36.9-5.5 6.9-10.8 13.5-15.8 20.3-2.6 3.3-4.5 6.9-5.8 10.6-1.9 5.7 1.4 11.1 7.7 12.6 3.7 0.8 7.7 0.6 11.4-0.7 6.2-2.1 11.9-5.3 16.7-9.4 18.3-15.9 32.4-34.8 41.1-55.3 0.7-1.6 1.3-3.3 1.8-4.9 0.1-0.4 0.2-0.9 0.2-1.3 0-0.3-0.1-0.6-0.2-0.9-0.3-0.4-0.8-0.6-1.3-0.5-0.2 0-0.3 0.1-0.5 0.1l-6.7 2.3c-0.6 0.2-1.3 0.4-1.9 0.7-0.7 0.3-1.2 0.8-1.6 1.3-0.4 0.6-0.7 1.1-1 1.7-4.8 10.6-10.9 20.8-18.4 30.4-5.2 7.3-11.5 13.9-18.5 19.9-2.7 2.3-5.8 4.3-9.2 5.8-1.1 0.5-2.2 0.8-3.4 1-0.9 0.1-1.7 0.1-2.5-0.2s-1.3-0.8-1.5-1.5c-0.1-0.6-0.1-1.2 0.1-1.8 0.3-1.1 0.8-2.1 1.4-3.1l25-40c0.2-0.3 0.4-0.7 0.5-1 0.2-0.4 0.2-0.9 0-1.3s-0.5-0.7-0.9-0.9c-0.7-0.4-1.4-0.7-2.1-1-1.1-0.4-2.3-0.7-3.6-0.8-1-0.1-2.1 0.1-3 0.6-0.7 0.4-1.3 0.8-1.8 1.3l-10.2 9.3-19.2 17.2-23.8 20.3 18.2-26 11.6-16.5c1.4-2 2.5-4 3.5-6.2s1.4-4.5 1.2-6.8c-1-6.5-8-10.5-15.8-9-6.7 1.2-13 4.3-17.7 8.9-7 6.7-12.5 14.4-16.1 22.7-0.8 1.7-1.5 3.3-2.1 5m-6.1 3.8-0.2-3.1-1.7-22.5-0.1-0.7c0-0.5-0.1-1-0.2-1.5-0.1-0.4-0.2-0.7-0.4-1-0.3-0.4-0.8-0.6-1.3-0.7-0.4-0.1-0.8-0.1-1.3-0.1l-9.3 0.1c-0.5 0-0.9 0.1-1.4 0.1-0.5 0.1-0.9 0.3-1.2 0.7-0.2 0.2-0.3 0.5-0.3 0.7s0.1 0.4 0.2 0.6l1.1 2.7 8.6 21.7 0.8 1.9c0.2 0.3 0.3 0.7 0.6 1 0.2 0.2 0.4 0.4 0.7 0.5 0.2 0.1 0.5 0.1 0.8 0.1 0.8 0 1.6 0.1 2.4 0.1 0.6 0 1.1-0.1 1.6-0.3l0.6-0.3zm111.6 16.7c0.7-1.5 1.7-2.9 2.8-4.2 2.9-3.2 6.9-5.6 11.3-7 1-0.3 2-0.4 3-0.4 0.6 0 1.1 0.1 1.6 0.4s0.9 0.8 0.9 1.3c0 0.4-0.1 0.8-0.3 1.2-0.4 0.8-1 1.5-1.7 2.2-0.8 0.7-1.8 1.3-2.8 1.8-0.7 0.4-1.4 0.7-2.2 1.1-1.3 0.6-2.7 1.1-4.1 1.7-1.6 0.6-3.2 1-4.9 1.3l-3.6 0.6m-1.2 7.1 2.2-0.3c3.8-0.4 7.6-1.2 11.3-2.4 5.7-1.7 10.8-4.7 14.9-8.6 1.9-1.9 3.3-4.1 3.9-6.5 0.8-2.9-0.3-5.7-2.9-7.2-2.3-1.3-5-1.9-7.9-1.8-6 0.3-12 1.9-17.3 4.7-10.7 5.2-17.1 15.2-15.9 24.9 0.3 3.7 2.5 6.9 6.1 8.7 3.4 1.7 7.5 2.4 11.7 2.1 5.1-0.3 10.2-1.7 14.8-3.8 8.8-4.1 17-9.2 24.4-15.1 0 0 1.3-2.3-0.7-4.2-1.9-1.8-4.5-0.2-4.5-0.2-5.6 4.1-11.6 7.9-17.8 11.2-4.3 2.3-9.1 3.6-13.9 4-1.9 0.1-3.7-0.1-5.3-0.8-1.3-0.5-2.2-1.5-2.7-2.6-0.2-0.8-0.3-1.5-0.4-2.1zm102.4 93.8c0.7-1.5 1.7-2.9 2.8-4.2 2.9-3.2 6.9-5.6 11.3-7 1-0.3 2-0.4 3-0.4 0.6 0 1.1 0.1 1.6 0.4s0.9 0.8 0.9 1.3c0 0.4-0.1 0.8-0.3 1.2-0.4 0.8-1 1.5-1.7 2.2-0.8 0.7-1.8 1.3-2.8 1.8-0.7 0.4-1.4 0.7-2.2 1.1-1.3 0.6-2.7 1.1-4.1 1.7-1.6 0.6-3.2 1-4.9 1.3l-3.6 0.6m330.2 11.7-2.5 4-1.5 2.5c-0.2 0.3-0.3 0.6-0.4 1-0.1 0.1-0.1 0.3 0 0.4 0.1 0.3 0.2 0.5 0.5 0.7s0.6 0.3 1 0.4c1.4 0.3 2.9 0.4 4.3 0.2 0.5 0 1-0.2 1.4-0.4 0.6-0.3 1.2-0.7 1.8-1.1l22.6-16.6c3.7-2.7 7.5-5.2 11.5-7.6 0.4-0.3 0.9-0.5 1.3-0.6 0.2-0.1 0.4-0.1 0.5-0.1 0.3 0 0.5 0.1 0.6 0.3 0.1 0.1 0.1 0.2 0.1 0.4s0 0.5-0.1 0.7c-0.1 0.3-0.3 0.7-0.5 1l-2.5 3.6c-2.2 2.8-4.3 5.7-6.3 8.6-1.2 1.7-2.2 3.4-3.2 5.1-0.5 0.9-0.8 1.8-0.9 2.7s0.3 1.8 1 2.5c1 0.9 2.3 1.4 3.8 1.5 1.4 0.1 2.9 0 4.3-0.3 5.3-1.1 10.4-2.9 15.1-5.4 6.5-3.6 12.5-7.9 17.9-12.8 0 0 1.5-2.2 0-4-1.9-2.2-4.2-0.9-4.2-0.9l-2.3 1.8c-5 4-10.5 7.5-16.4 10.4l-2.1 0.9c-0.3 0.1-0.7 0.2-1.1 0.2-0.3 0-0.7-0.1-0.9-0.3-0.3-0.3-0.4-0.6-0.3-1 0.1-0.3 0.2-0.5 0.3-0.8 0.3-0.5 0.6-1 0.9-1.5l9.1-13c1.3-1.8 2.5-3.7 3.5-5.7 0.5-1 0.8-2 1-3 0.2-1.4-0.4-2.7-1.7-3.4-0.9-0.5-2-0.7-3.1-0.6-2 0.1-3.9 0.6-5.8 1.4-3.3 1.5-6.5 3.2-9.5 5-7.7 5-15.1 10.4-22.2 16.1l13.4-19.2c0.2-0.2 0.3-0.5 0.4-0.7 0.1-0.3 0.2-0.6 0-0.9-0.1-0.2-0.2-0.3-0.4-0.4-0.1-0.1-0.3-0.1-0.5-0.2-0.3 0-0.6-0.1-0.9-0.1-2.2 0-4.4 0.1-6.7 0.3-0.4 0-0.7 0.1-1.1 0.1-0.2 0-0.5 0.1-0.7 0.3s-0.5 0.4-0.6 0.6c-0.4 0.4-0.7 0.9-1 1.4l-8.9 13.9c-1.4 1.1-2.9 2.1-4.4 3.1-2.3 1.6-5 2.8-7.8 3.5-0.7 0.2-1.4 0.2-2 0.2l-1.1-0.1c1-1.3 1.9-2.7 2.8-4.1 1.2-1.8 2.1-3.8 2.7-5.8 0.2-0.9 0.3-1.7 0.3-2.6-0.2-1.5-1.4-2.7-3.1-3.1-1.6-0.3-3.4 0.1-4.9 1-1.3 0.8-2.4 1.7-3.3 2.8-3 3.7-4.6 7.9-4.7 12.1-0.8 0.8-1.6 1.7-2.5 2.5-1.5 1.4-3.2 2.5-5.2 3.4-1.3 0.6-2.7 0.8-4.1 0.7s-2.5-0.8-3-1.8c-0.3-0.5-0.4-1.1-0.5-1.7-0.6-4.9 1.6-10 6-13.8 3.5-2.9 7.8-5.1 12.3-6.4l4.9-1.5c0.8-0.2 1.5-0.6 2.2-1 0.5-0.3 1-0.8 1.3-1.3 0.3-0.7 0.4-1.4 0.3-2.1-0.5-2.4-2.8-4.1-5.7-4.1-1.5 0-3 0.2-4.5 0.6-4.1 1.1-8 2.7-11.6 4.7-7 3.6-12.3 9.1-15 15.4l-0.6 0.4c-5.2 3.8-10.8 7-16.8 9.6-1.3 0.6-2.7 1-4.1 1.3-0.4 0.1-0.8 0.1-1.2 0.1-0.3 0-0.5-0.1-0.7-0.2-0.3-0.2-0.5-0.5-0.4-0.8 0-0.2 0.1-0.4 0.1-0.6 0.2-0.5 0.5-1 0.8-1.5l14.8-22c0.4-0.6 0.8-1.2 1.1-1.8 0.1-0.1 0.1-0.3 0.1-0.4v-0.3c0-0.1-0.1-0.2-0.2-0.3-0.2-0.1-0.4-0.3-0.6-0.3-0.3-0.1-0.6-0.1-0.9-0.2-1.9-0.1-3.7 0-5.6 0.1-0.6 0-1.3 0.1-1.9 0.2-0.2 0-0.4 0.1-0.6 0.2s-0.5 0.3-0.6 0.5c-0.3 0.4-0.6 0.7-0.9 1.1l-6 8.7-3.9 5.7c-5.3 3.9-11 7.3-17 10.3-1.3 0.7-2.8 1.3-4.3 1.8-0.6 0.2-1.2 0.3-1.8 0.3-0.2 0-0.4 0-0.6-0.1-0.4-0.2-0.7-0.5-0.7-1 0-0.2 0.1-0.4 0.1-0.6 0.2-0.5 0.4-1 0.7-1.5l4.3-6.9 16.5-26.1h5.3 2.7c0.3 0 0.6-0.1 0.9-0.1 0.3-0.1 0.6-0.2 0.8-0.4s0.3-0.4 0.5-0.6c0.6-0.9 1.1-1.8 1.5-2.7 0.2-0.5 0.4-1 0.5-1.5 0.1-0.7-0.3-1.3-1-1.5-0.3-0.1-0.7-0.1-1-0.1h-5.7l4.7-7.5 4.6-7.5c0.5-1 1-1.9 1.3-2.9 0.2-0.9 0.1-1.7-0.3-2.5-0.5-1.1-1.8-1.7-3.3-1.6-0.8 0.1-1.7 0.3-2.4 0.7-1.4 0.7-2.6 1.7-3.6 2.8-1.6 1.9-3.1 3.8-4.3 5.9l-7.4 12.7h-12.3c-0.3 0-0.6 0-0.9 0.1s-0.7 0.2-0.9 0.4-0.4 0.5-0.5 0.7c-0.5 0.9-0.9 1.9-1.2 2.9-0.1 0.4-0.2 0.7-0.2 1.1s0.2 0.8 0.5 1.1c0.3 0.2 0.6 0.4 1 0.5 0.7 0.2 1.4 0.2 2.1 0.2h8l-15.3 24.3c-2.1 1.5-4.1 2.9-6.3 4.2-3.7 2.5-7.6 4.9-11.6 7-0.8 0.4-1.6 0.7-2.4 1-0.4 0.1-0.9 0.2-1.3 0.2-0.2 0-0.5-0.1-0.7-0.2-0.4-0.2-0.7-0.6-0.7-1s0-0.7 0.1-1.1c0.2-0.8 0.5-1.6 1-2.3l6.2-9.7c0.5-0.8 1-1.5 1.4-2.3l0.3-0.6c0.1-0.2 0-0.5-0.1-0.7s-0.4-0.3-0.6-0.4c-0.3-0.1-0.7-0.2-1-0.2-1.3-0.1-2.6-0.2-4-0.1-0.9 0-1.9 0.1-2.8 0.4-0.5 0.1-1 0.4-1.5 0.7-0.4 0.3-0.7 0.6-1 1l-1.9 2.3c-3.2 3.8-6.9 7.3-11 10.4-1.8 1.3-3.9 2.3-6.2 2.7-0.5 0.1-1.1 0.1-1.6 0.1-1-0.1-1.7-0.7-2-1.5-0.2-0.5-0.3-1-0.3-1.5 0-4.3 2.1-8.5 5.8-11.8 5.3-4.5 12-7.5 19-8.5 2.9-0.5 5.8-0.4 8.4 0.3 0.8 0.2 1.6 0.5 2.3 0.8 0.1 0.1 0.3 0.1 0.4 0.1s0.3 0 0.5-0.1c0.1-0.1 0.3-0.2 0.4-0.3 0.1-0.2 0.3-0.3 0.3-0.5 0.2-0.5 0.4-1.1 0.5-1.6 0.2-1.4 0.1-2.8-0.1-4.2-0.1-0.4-0.2-0.7-0.3-1l-0.3-0.3c-0.1-0.1-0.3-0.2-0.5-0.2-0.4-0.1-0.8-0.2-1.2-0.2-10.1-1.2-20.7 0.8-30.1 5.5-5.9 2.8-10.5 7-13.5 11.8l-1.4 1c-5.4 4-11.3 7.6-17.5 10.7-1.3 0.7-2.8 1.3-4.3 1.8-0.6 0.2-1.2 0.3-1.8 0.3-0.2 0-0.4 0-0.6-0.1-0.4-0.2-0.7-0.5-0.7-1 0-0.2 0.1-0.4 0.1-0.6 0.2-0.5 0.4-1 0.7-1.5l4.3-6.9 16.5-26.1h5.2 2.7c0.3 0 0.6-0.1 0.9-0.1 0.3-0.1 0.6-0.2 0.8-0.4s0.3-0.4 0.5-0.6c0.6-0.9 1.1-1.8 1.5-2.7 0.2-0.5 0.4-1 0.5-1.5 0.1-0.7-0.3-1.3-1-1.5-0.3-0.1-0.7-0.1-1-0.1h-5.7l4.7-7.5 4.6-7.5c0.5-1 1-1.9 1.3-2.9 0.2-0.9 0.1-1.7-0.3-2.5-0.5-1.1-1.8-1.7-3.3-1.6-0.8 0.1-1.7 0.3-2.4 0.7-1.4 0.7-2.6 1.7-3.6 2.8-1.6 1.9-3.1 3.8-4.3 5.9l-7.4 12.7h-12.3c-0.3 0-0.6 0-0.9 0.1s-0.7 0.2-0.9 0.4-0.4 0.5-0.5 0.7c-0.5 0.9-0.9 1.9-1.2 2.9-0.1 0.4-0.2 0.7-0.2 1.1s0.2 0.8 0.5 1.1c0.3 0.2 0.6 0.4 1 0.5 0.7 0.2 1.4 0.2 2.1 0.2h8l-15.2 24-3.7 2.7c-3.6 2.5-7.3 4.7-11.2 6.8-0.7 0.4-1.5 0.8-2.2 1.2-0.3 0.2-0.7 0.3-1 0.4-0.2 0.1-0.3 0.1-0.5 0.1-0.3 0-0.5-0.1-0.7-0.2-0.1-0.1-0.2-0.3-0.2-0.5-0.1-0.3 0-0.7 0.1-1 0.2-0.5 0.5-1.1 0.8-1.5l2.5-3.7 11-16.2 0.8-1.1c0.4-0.6 0.8-1.1 1.1-1.7 0.1-0.2 0.3-0.5 0.3-0.7 0.1-0.4 0.1-0.9-0.2-1.2-0.2-0.3-0.5-0.4-0.9-0.5s-0.8-0.2-1.3-0.2c-1.4-0.1-2.8-0.1-4.2 0-0.6 0-1.2 0.1-1.7 0.3-0.8 0.2-1.5 0.6-2.1 1.1l-13.3 10c-6 4.9-12.4 9.3-19.2 13.3-0.5 0.3-0.9 0.5-1.4 0.8-0.1 0.1-0.3 0.1-0.5 0.2-0.3 0.1-0.6 0-0.8-0.1-0.1-0.1-0.2-0.2-0.2-0.3s0-0.2 0.1-0.2c0.1-0.3 0.3-0.6 0.5-1 0.7-1.1 1.4-2.2 2.1-3.2l12.1-16.9 1-1.4c0.3-0.4 0.5-0.7 0.8-1.1 0.1-0.2 0.2-0.5 0.3-0.7 0-0.3 0-0.5-0.2-0.7-0.1-0.1-0.3-0.3-0.5-0.3-0.2-0.1-0.4-0.1-0.6-0.1-1.7-0.2-3.5-0.2-5.3-0.1-0.8 0-1.5 0.1-2.3 0.3-0.7 0.1-1.3 0.5-1.8 0.9-0.4 0.4-0.8 0.8-1.1 1.2-3.4 5-7 9.9-10.7 14.8-0.5 0.7-1 1.4-1.5 2l-4.8 3.3c-3.5 2.3-7.2 4.3-11 6.1-1.3 0.6-2.8 1.1-4.2 1.3-1.2 0.1-2.4 0.2-3.6 0.2l4.1-3.1c4.9-3.6 8.6-8.2 10.8-13.2 1.2-2.6 1.5-5.4 0.9-8-0.5-2.4-2.2-4.4-4.7-5.5-2.8-1.1-6.1-1.2-9.2-0.3-2.9 0.9-5.7 2.2-8.2 3.9-3.8 2.7-7.2 5.8-10.1 9.2l6.7-11 0.3-0.6c0-0.1 0.1-0.3 0-0.4-0.1-0.2-0.2-0.4-0.4-0.6-0.2-0.1-0.4-0.2-0.6-0.2-1.3-0.2-2.6-0.3-4-0.3-0.8 0-1.6 0.1-2.4 0.3-0.6 0.2-1.1 0.4-1.6 0.8l-0.1 0.1c-0.2 0.2-0.4 0.5-0.5 0.8l-8 13.3c-0.9 0.9-2.2 2.3-3 3.2-4.3 2.9-8.7 5.6-13.4 8-4.3 2.3-9.1 3.6-13.9 4-1.9 0.1-3.7-0.1-5.3-0.8-1.3-0.5-2.2-1.5-2.7-2.6-0.2-0.6-0.3-1.3-0.4-2l2.2-0.3c3.8-0.4 7.6-1.2 11.3-2.4 5.7-1.7 10.8-4.7 14.9-8.6 1.9-1.9 3.3-4.1 3.9-6.5 0.8-2.9-0.3-5.7-2.9-7.2-2.3-1.3-5-1.9-7.9-1.9-6 0.3-12 1.9-17.3 4.7-6.6 3.2-11.6 8.2-14.1 13.9-3.1 2.2-6.3 4.4-9.6 6.4-2.3 1.5-4.7 2.9-7.2 4.2-0.7 0.4-1.5 0.7-2.4 0.9-0.5 0.1-0.9 0.2-1.4 0.1-0.4 0-0.7-0.1-0.9-0.3-0.3-0.2-0.4-0.5-0.4-0.9 0-0.2 0.1-0.3 0.1-0.5 0.2-0.4 0.5-0.9 0.8-1.3l5.3-6.8c2-2.4 3.8-4.9 5.5-7.4 1.1-1.7 1.9-3.6 2.3-5.5 0.4-2-0.6-4-2.5-5-1.4-0.7-3-1.1-4.6-1.1-2.1-0.1-4.3-0.1-6.4 0 0.4-0.7 0.8-1.4 1-2.2 0.6-2-0.3-3.9-2.2-4.8-1.6-0.7-3.4-0.8-5.2-0.5-1.9 0.3-3.6 1.3-4.6 2.8-1.2 1.6-1.7 3.4-1.4 5.2 0.1 0.9 0.4 1.8 0.9 2.5 0.4 0.5 0.9 1 1.3 1.4-1.2 1.5-2.5 2.9-3.8 4.4-3.1 3.3-6.6 6.3-10.4 9 0 0-1.7 1.9 0 3.8 2.1 2.3 5.3 0.6 5.3 0.6 2.1-1.5 4.2-3.2 6.1-4.8 3.4-3.2 6.6-6.5 9.7-9.9h1.9c0.5 0 1 0 1.5 0.1 0.3 0.1 0.7 0.2 0.9 0.3 0.3 0.2 0.4 0.4 0.5 0.7 0 0.3 0 0.5-0.1 0.8s-0.3 0.6-0.5 0.9c-0.6 0.8-1.3 1.6-2 2.4l-9 10.8c-1.9 2.4-3.5 4.9-4.6 7.6-0.4 1-0.7 2.1-0.7 3.1-0.1 1.4 0.5 2.7 1.7 3.5 1.3 0.9 2.9 1.4 4.6 1.4 1.6 0 3.2-0.1 4.8-0.5 4.7-1.2 9.2-3 13.3-5.4 3.6-2.1 7.1-4.4 10.6-6.7 0 0.5 0.1 1 0.1 1.5 0.3 3.7 2.5 6.9 6.1 8.7 3.4 1.7 7.5 2.4 11.7 2.1 5.1-0.4 10.2-1.7 14.8-3.8 2.9-1.4 5.8-2.8 8.5-4.4-5.4 9.2-10.4 18.5-15.1 27.9-1.1 2.3-2 4.7-2.6 7.2-0.2 0.9-0.2 1.8 0.1 2.7 0.4 1.3 1.6 2.2 3.2 2.2 1.8 0 3.6-0.7 5-1.8 1.2-1 2.1-2.2 2.8-3.5 1.5-2.8 2.8-5.7 3.9-8.7 2.3-5.9 5.1-11.6 8.2-17.3 2.5-4.6 5.5-9 8.7-13.2 5.1-6.3 11.7-11.7 19.2-15.8 1.2-0.7 2.5-1.2 3.9-1.6 0.5-0.1 1.1-0.2 1.6-0.2 0.8 0 1.5 0.4 1.7 1.1 0.1 0.3 0.1 0.6 0 1-0.1 0.8-0.4 1.5-0.7 2.3-1.6 3.5-3.8 6.8-6.7 9.7-2.9 3-6.2 5.7-9.7 8.1l-5.1 0.1c-0.9 0-1.8 0-2.7 0.1-1.1 0.1-2.1 0.8-2.5 1.7-0.1 0.3-0.2 0.6-0.2 0.9 0.1 2.4 1.9 4.3 4.5 4.9 1.9 0.4 3.9 0.3 5.8-0.3 1.4-0.4 2.8-1 4.2-1.6l1.4 0.4c3.2 0.9 6.7 0.9 10.1 0.2 4.9-1.1 9.6-3 13.8-5.5-0.3 0.9-0.5 1.8-0.6 2.7-0.1 1.3 0.4 2.4 1.3 3.3 0.9 0.8 2.1 1.2 3.5 1.2 1.6 0 3.2-0.4 4.8-1 3-1.3 6-2.8 8.8-4.4 8.5-5.3 16.5-11.1 24-17.4-2.6 3.3-5.2 6.7-7.6 10.1-1.3 1.7-2.5 3.4-3.6 5.1-0.6 1-1.1 2-1.3 3-0.3 1.3 0.1 2.5 1.1 3.3 0.9 0.8 2.2 1.2 3.5 1.4 2.2 0.2 4.4 0 6.5-0.7s4.2-1.5 6.2-2.5c3-1.5 6-3.2 8.9-4.9-0.1 0.3-0.2 0.5-0.3 0.8-0.4 1.1-0.7 2.2-0.7 3.3 0 1.6 1 3 2.7 3.7 1.2 0.5 2.5 0.7 3.8 0.6 3.4-0.1 6.7-0.9 9.9-2.2 6.8-2.8 13.2-6.3 19.2-10.3 0 1 0 2.1 0.1 3.1 0.2 2.3 1.1 4.4 2.8 6.1 2 1.8 4.9 2.7 8 2.5 4.1-0.3 8.1-1.9 11.2-4.5 2-1.7 4-3.4 5.9-5.2l-1.5 4c-0.2 0.6-0.4 1.3-0.5 1.9-0.2 1.1 0.2 2.2 1.1 3 0.8 0.6 1.8 1 2.9 1.2 2.3 0.4 4.9 0.2 7.2-0.7 3.8-1.3 7.5-3 11-4.8 1.4-0.7 2.8-1.5 4.2-2.3-0.6 1.2-0.9 2.5-0.9 3.7 0 1.6 1 3 2.7 3.7 1.2 0.5 2.5 0.7 3.8 0.6 3.4-0.1 6.7-0.9 9.9-2.2 4.3-1.8 8.4-3.8 12.4-6.1-0.3 0.8-0.5 1.5-0.7 2.3-0.2 0.9-0.2 1.7 0 2.5 0.3 1.7 1.7 3 3.6 3.4 1 0.2 2.1 0.3 3.2 0.1 2.9-0.4 5.7-1.1 8.4-2.1 7-2.8 13.7-6.2 20-10.2 0 1.4 0.1 2.9 0.4 4.3 0.8 3.8 4.2 6.6 8.6 7.3 5 0.7 10.3-0.4 14.8-3 2.6-1.5 5-3.2 7.3-5 0.4 0.2 0.8 0.4 1.1 0.6 0.8 0.4 1.8 0.7 2.8 0.8 1.2 0.1 2.5 0 3.8-0.3 1.8 0 3.7-0.6 5.5-1.5zm92.4-53.9-1.7 22.5-0.2 1.7-0.1 0.5v0.5c0 0.2 0.1 0.5 0.3 0.7l0.6 0.3c0.2 0 0.4 0.1 0.6 0.1 1.1 0 2.2 0 3.3-0.1 0.3 0 0.5-0.1 0.8-0.1 0.3-0.1 0.5-0.2 0.6-0.4 0.2-0.2 0.4-0.5 0.5-0.8 0.3-0.5 0.5-1.1 0.7-1.6l0.2-0.5 8.6-21.6 1.1-2.7c0.1-0.2 0.1-0.4 0.2-0.6 0-0.2-0.1-0.5-0.3-0.7-0.3-0.3-0.8-0.6-1.2-0.7-0.5-0.1-0.9-0.1-1.4-0.1l-9.3-0.1c-0.4 0-0.9 0-1.3 0.1-0.6 0.1-1 0.3-1.3 0.7-0.2 0.3-0.4 0.6-0.4 1-0.1 0.5-0.1 1-0.2 1.5l-0.1 0.4m-656.2-101-0.1-0.7c0-0.5-0.1-1-0.2-1.5-0.1-0.4-0.2-0.7-0.4-1-0.3-0.4-0.8-0.6-1.3-0.7-0.4-0.1-0.8-0.1-1.3-0.1l-9.3 0.1c-0.5 0-0.9 0.1-1.4 0.1-0.5 0.1-0.9 0.3-1.2 0.7-0.2 0.2-0.3 0.5-0.3 0.7s0.1 0.4 0.2 0.6l1.1 2.7 8.6 21.6 0.2 0.5c0.2 0.6 0.4 1.1 0.7 1.6 0.1 0.3 0.3 0.5 0.5 0.8 0.2 0.2 0.4 0.3 0.6 0.4s0.5 0.1 0.8 0.1c1.1 0.1 2.2 0.1 3.3 0.1 0.2 0 0.4 0 0.6-0.1 0.2 0 0.4-0.1 0.6-0.3s0.3-0.4 0.3-0.7v-0.5l-0.1-0.5-0.2-1.7-1.7-22.2m464.3 52.9-1.5 4c-0.2 0.6-0.4 1.3-0.5 1.9-0.2 1.1 0.2 2.2 1.1 3 0.8 0.6 1.8 1 2.9 1.2 2.3 0.4 4.9 0.2 7.2-0.7 3.8-1.3 7.5-3 11-4.8 7-3.7 13.6-8 19.6-13 0 0 1.7-2-0.2-4.6-1.6-2.3-3.7-0.9-3.7-0.9-3.3 2.4-6.6 4.8-10.1 7-3.7 2.5-7.6 4.9-11.6 7-0.8 0.4-1.6 0.7-2.4 1-0.4 0.1-0.9 0.2-1.3 0.2-0.2 0-0.5-0.1-0.7-0.2-0.4-0.2-0.7-0.6-0.7-1s0-0.7 0.1-1.1c0.2-0.8 0.5-1.6 1-2.3l6.2-9.7c0.5-0.8 1-1.5 1.4-2.3l0.3-0.6c0.1-0.2 0-0.5-0.1-0.7s-0.4-0.3-0.6-0.4c-0.3-0.1-0.7-0.2-1-0.2-1.3-0.1-2.6-0.2-4-0.1-0.9 0-1.9 0.1-2.8 0.4-0.5 0.1-1 0.4-1.5 0.7-0.4 0.3-0.7 0.6-1 1l-1.9 2.4c-3.2 3.8-6.9 7.3-11 10.4-1.8 1.3-3.9 2.3-6.2 2.7-0.5 0.1-1.1 0.1-1.6 0.1-1-0.1-1.7-0.7-2-1.5-0.2-0.5-0.3-1-0.3-1.5 0-4.3 2.1-8.5 5.8-11.8 5.3-4.5 12-7.5 19-8.5 2.9-0.5 5.8-0.4 8.4 0.3 0.8 0.2 1.6 0.5 2.3 0.8 0.1 0.1 0.3 0.1 0.4 0.1 0.2 0 0.3 0 0.5-0.1 0.1-0.1 0.3-0.2 0.4-0.3 0.1-0.2 0.3-0.3 0.3-0.5 0.2-0.5 0.4-1.1 0.5-1.6 0.2-1.4 0.1-2.8-0.1-4.2-0.1-0.4-0.2-0.7-0.3-1l-0.3-0.3c-0.2-0.1-0.3-0.2-0.5-0.2-0.4-0.1-0.8-0.2-1.2-0.2-10.1-1.2-20.7 0.8-30.1 5.5-11.2 5.3-18 15.7-16.8 25.9 0.2 2.3 1.1 4.4 2.8 6.1 2 1.8 4.9 2.7 8 2.5 4.1-0.3 8.1-1.9 11.2-4.5 1.8-1.8 3.8-3.5 5.6-5.4m45.9 60.9c-0.4 2.3 0.9 4.4 3.3 5.3 2.6 0.8 5.7 0.2 7.9-1.7 2.2-1.7 3.3-4.1 2.9-6.4-0.3-2-2-3.6-4.3-4-2.4-0.3-5.1 0.5-6.9 2.2-1.6 1.2-2.5 2.8-2.9 4.6m123.6-12.8-1.7 22.5-0.2 1.7-0.1 0.5v0.5c0 0.2 0.1 0.5 0.3 0.7l0.6 0.3c0.2 0 0.4 0.1 0.6 0.1 1.1 0 2.2 0 3.3-0.1 0.3 0 0.5-0.1 0.8-0.1 0.3-0.1 0.5-0.3 0.7-0.5 0.2-0.3 0.4-0.6 0.6-1l0.8-1.9 8.6-21.7 1.1-2.7c0.1-0.2 0.1-0.4 0.2-0.6 0-0.2-0.1-0.5-0.3-0.7-0.3-0.3-0.8-0.6-1.2-0.7-0.5-0.1-0.9-0.1-1.4-0.1l-9.3-0.1c-0.4 0-0.9 0-1.3 0.1-0.6 0.1-1 0.3-1.3 0.7-0.2 0.3-0.4 0.6-0.4 1-0.1 0.5-0.1 1-0.2 1.5l-0.2 0.6m28 49.3c0-8 6.4-14.7 14.6-14.7s14.6 6.6 14.6 14.6v0.1c0 7.9-6.4 14.6-14.6 14.6-8.3-0.1-14.6-6.7-14.6-14.6zm27.4-0.1c0-7.2-5.5-13.1-12.9-13.1-7.3 0-12.9 5.9-12.9 13.1v0.1c0 7.1 5.5 13 12.9 13 7.3 0 12.9-6 12.9-13.1zm-19.4-8h7.4c4 0 6.7 1.8 6.7 5.3 0 2.4-1.2 4-3.1 4.9l3.6 5.3h-5.4l-3-4.4h-1.4v4.4h-4.8v-15.5zm7.2 7.3c1.4 0 2.2-0.7 2.2-1.7 0-1.1-0.8-1.7-2.1-1.7h-2.5v3.3h2.4z"/>
</svg>
